<?xml version="1.0" standalone="no"?>
<!DOCTYPE svg PUBLIC "-//W3C//DTD SVG 1.1//EN" "http://www.w3.org/Graphics/SVG/1.1/DTD/svg11.dtd" >
<svg xmlns="http://www.w3.org/2000/svg" xmlns:xlink="http://www.w3.org/1999/xlink" version="1.1">
<metadata>
Created by FontForge 20201107 at Mon Dec  3 17:45:04 2018
 By Jimmy Wärting
Copyright (c) 2016 by Aaron James Draplin, Draplin Design Company. All rights reserved.
</metadata>
<defs>
<font id="DDCHardware-Compressed" horiz-adv-x="445" >
  <font-face 
    font-family="DDC Hardware Compressed"
    font-weight="400"
    font-stretch="normal"
    units-per-em="1000"
    panose-1="2 0 0 0 0 0 0 0 0 0"
    ascent="800"
    descent="-200"
    x-height="675"
    cap-height="675"
    bbox="-220 -304 1667 928"
    underline-thickness="0"
    underline-position="0"
    unicode-range="U+000D-FB02"
  />
<missing-glyph horiz-adv-x="1036" 
d="M899 474q16 -5 26.5 -19.5t10.5 -30.5v-168q0 -16 -10.5 -30.5t-26.5 -19.5l-343 -108q-17 -5 -37.5 -5t-37.5 5l-342 108q-16 5 -27.5 19.5t-11.5 30.5v168q0 16 11.5 30.5t27.5 19.5l342 111q16 5 37.5 5t37.5 -5zM617 404q0 15 -10.5 26t-26.5 11h-146v-195h146
q16 0 26.5 11.5t10.5 25.5v121zM390 404q0 15 -11.5 26t-26.5 11h-146v-195h146q15 0 26.5 11.5t11.5 25.5v121zM808 246q15 0 26 11.5t11 25.5v27h-57v-12q0 -2 -3 -6q-1 -2 -3 -3h-58q-2 0 -4 3t-2 6v92q0 3 2 4.5t4 1.5h58q2 -1 3 -1q3 -3 3 -5v-16h57v30q0 15 -11 26
t-26 11h-109q-17 0 -28 -11t-11 -26v-121q0 -14 11 -25.5t28 -11.5h109zM324 396q9 0 9 -6v-92q0 -3 -2.5 -6t-6.5 -3h-60v107h60zM555 396q1 0 3 -1.5t2 -4.5v-92q0 -3 -2 -6t-3 -3h-64v107h64z" />
    <glyph glyph-name=".notdef" horiz-adv-x="1036" 
d="M899 474q16 -5 26.5 -19.5t10.5 -30.5v-168q0 -16 -10.5 -30.5t-26.5 -19.5l-343 -108q-17 -5 -37.5 -5t-37.5 5l-342 108q-16 5 -27.5 19.5t-11.5 30.5v168q0 16 11.5 30.5t27.5 19.5l342 111q16 5 37.5 5t37.5 -5zM617 404q0 15 -10.5 26t-26.5 11h-146v-195h146
q16 0 26.5 11.5t10.5 25.5v121zM390 404q0 15 -11.5 26t-26.5 11h-146v-195h146q15 0 26.5 11.5t11.5 25.5v121zM808 246q15 0 26 11.5t11 25.5v27h-57v-12q0 -2 -3 -6q-1 -2 -3 -3h-58q-2 0 -4 3t-2 6v92q0 3 2 4.5t4 1.5h58q2 -1 3 -1q3 -3 3 -5v-16h57v30q0 15 -11 26
t-26 11h-109q-17 0 -28 -11t-11 -26v-121q0 -14 11 -25.5t28 -11.5h109zM324 396q9 0 9 -6v-92q0 -3 -2.5 -6t-6.5 -3h-60v107h60zM555 396q1 0 3 -1.5t2 -4.5v-92q0 -3 -2 -6t-3 -3h-64v107h64z" />
    <glyph glyph-name=".null" horiz-adv-x="0" 
 />
    <glyph glyph-name=".null" horiz-adv-x="0" 
 />
    <glyph glyph-name="nonmarkingreturn" unicode="&#xd;" horiz-adv-x="154" 
 />
    <glyph glyph-name="space" unicode=" " horiz-adv-x="154" 
 />
    <glyph glyph-name="exclam" unicode="!" horiz-adv-x="231" 
d="M174 233h-119l-9 442h139zM177 0h-126v156h126v-156z" />
    <glyph glyph-name="quotedbl" unicode="&#x22;" horiz-adv-x="428" 
d="M278 391l-16 284h120l-16 -284h-88zM63 391l-17 284h121l-16 -284h-88z" />
    <glyph glyph-name="numbersign" unicode="#" horiz-adv-x="672" 
d="M412 420h-118l-27 -154h117zM368 172h-118l-31 -172h-109l31 172h-109v94h125l28 154h-81v94h97l29 161h110l-29 -161h117l29 161h110l-29 -161h102v-94h-119l-27 -154h74v-94h-91l-31 -172h-109z" />
    <glyph glyph-name="dollar" unicode="$" horiz-adv-x="357" 
d="M227 72v-120h-86v120h-98v101h151q8 0 8 9v104q0 9 -8 9h-83q-30 0 -49 19.5t-19 49.5v184q0 30 19 49.5t49 19.5h30v116h86v-116h81v-97h-127q-3 0 -15 -3t-12 -8v-100q0 -3 12 -6t15 -3h49q15 0 30 -5t27 -14.5t19.5 -22t7.5 -27.5v-190q0 -30 -19.5 -49.5t-49.5 -19.5
h-18z" />
    <glyph glyph-name="percent" unicode="%" horiz-adv-x="863" 
d="M592 516h-124l107 188h124zM328 675q20 0 33.5 -13t13.5 -32v-312q0 -20 -13.5 -33t-33.5 -13h-214q-19 0 -33.5 13t-14.5 33v312q0 19 14.5 32t33.5 13h214zM270 589h-99v-230h99v230zM752 403q20 0 33.5 -13t13.5 -32v-312q0 -20 -13.5 -33t-33.5 -13h-214
q-19 0 -33.5 13t-14.5 33v312q0 19 14.5 32t33.5 13h214zM694 317h-99v-230h99v230zM383 148l-106 -187h-123l106 187h123z" />
    <glyph glyph-name="ampersand" unicode="&#x26;" horiz-adv-x="461" 
d="M142 0q-35 0 -57 22t-22 57v152q0 42 25 70.5t68 28.5q-43 0 -68 27.5t-25 68.5v170q0 35 22 57t57 22h158q35 0 57 -22t22 -57v-119h-113v90q0 14 -14 14h-62q-14 0 -14 -14v-175q0 -14 14 -14h256v-91h-62v-208q0 -35 -22 -57t-57 -22h-163zM257 94q14 0 14 14v179h-81
q-14 0 -14 -14v-165q0 -14 14 -14h67z" />
    <glyph glyph-name="quotesingle" unicode="'" horiz-adv-x="213" 
d="M63 391l-17 284h121l-16 -284h-88z" />
    <glyph glyph-name="parenleft" unicode="(" horiz-adv-x="265" 
d="M213 -204q-50 58 -88 135q-24 43 -37.5 79.5t-25 82.5t-19 99.5t-7.5 113.5q0 120 27.5 215t61.5 161q38 77 88 135l82 -63q-42 -43 -75 -108q-21 -36 -32.5 -68t-21 -73t-16 -91t-6.5 -108q0 -117 23.5 -201t52.5 -139q33 -65 75 -108z" />
    <glyph glyph-name="parenright" unicode=")" horiz-adv-x="265" 
d="M-30 -142q42 43 76 108q20 36 31.5 68t21 73t16 91t6.5 108q0 117 -23.5 201t-51.5 139q-34 65 -76 108l82 63q50 -58 89 -135q23 -44 36.5 -80.5t25 -82t19 -99.5t7.5 -114q0 -120 -27.5 -215t-60.5 -160q-39 -77 -89 -135z" />
    <glyph glyph-name="asterisk" unicode="*" horiz-adv-x="393" 
d="M261 532l86 -46l-35 -62l-83 51l2 -97h-69l3 97l-84 -51l-35 62l86 46l-86 45l35 62l84 -51l-3 97h69l-2 -97l83 51l35 -62z" />
    <glyph glyph-name="plus" unicode="+" horiz-adv-x="519" 
d="M313 268v-158h-107v158h-137v94h137v155h107v-155h137v-94h-137z" />
    <glyph glyph-name="comma" unicode="," horiz-adv-x="291" 
d="M117 139h128l-90 -274h-109z" />
    <glyph glyph-name="hyphen" unicode="-" horiz-adv-x="531" 
d="M462 386v-113h-393v113h393z" />
    <glyph glyph-name="period" unicode="." horiz-adv-x="218" 
d="M172 0h-126v156h126v-156z" />
    <glyph glyph-name="slash" unicode="/" horiz-adv-x="370" 
d="M117 -71h-102l239 817h101z" />
    <glyph glyph-name="zero" unicode="0" horiz-adv-x="419" 
d="M292 681q36 0 57 -21t21 -57v-530q0 -36 -21 -57t-57 -21h-165q-36 0 -57 21t-21 57v530q0 36 21 57t57 21h165zM245 88q12 0 12 12v474q0 12 -12 12h-71q-12 0 -12 -12v-474q0 -12 12 -12h71z" />
    <glyph glyph-name="one" unicode="1" horiz-adv-x="420" 
d="M34 0v95h126v471l-98 -22l-20 83l141 48h88v-580h114v-95h-351z" />
    <glyph glyph-name="two" unicode="2" horiz-adv-x="420" 
d="M194 278q-12 0 -12 -12v-173h170v-93h-283v308q0 36 21 57t57 21h79q12 0 12 12v171q0 12 -12 12h-147v94h194q36 0 57 -21t21 -57v-241q0 -36 -21 -57t-57 -21h-79z" />
    <glyph glyph-name="three" unicode="3" horiz-adv-x="420" 
d="M66 0v94h147q12 0 12 12v186q0 12 -12 12h-130v96h130q12 0 12 12v157q0 12 -12 12h-147v94h194q36 0 57 -21t21 -57v-176q0 -20 -14 -42t-31 -36q21 -7 33 -24t12 -44v-197q0 -36 -21 -57t-57 -21h-194z" />
    <glyph glyph-name="four" unicode="4" horiz-adv-x="420" 
d="M389 154h-58v-154h-111v154h-172v521h102v-432h75v432h106v-432h58v-89z" />
    <glyph glyph-name="five" unicode="5" horiz-adv-x="420" 
d="M181 581v-182h88q36 0 57 -21t21 -57v-243q0 -36 -21 -57t-57 -21h-194v94h147q12 0 12 12v180q0 12 -12 12h-148v377h269v-94h-162z" />
    <glyph glyph-name="six" unicode="6" horiz-adv-x="420" 
d="M187 581q-12 0 -12 -12v-132h111q36 0 57 -21t21 -57v-286q0 -36 -21 -57t-57 -21h-146q-36 0 -57 21t-21 57v524q0 36 21 57t57 21h209v-94h-162zM182 343q-12 0 -12 -12v-229q0 -12 12 -12h62q12 0 12 12v229q0 12 -12 12h-62z" />
    <glyph glyph-name="seven" unicode="7" horiz-adv-x="420" 
d="M370 675v-84l-198 -591h-114l200 581h-208v94h320z" />
    <glyph glyph-name="eight" unicode="8" horiz-adv-x="420" 
d="M364 409q0 -29 -23 -44t-50 -15q14 0 27 -6.5t23 -17t16.5 -24t6.5 -28.5v-201q0 -36 -21 -57t-57 -21h-152q-36 0 -57 21t-21 57v201q0 15 6 28.5t16.5 24t24 17t27.5 6.5q-29 0 -51.5 15t-22.5 44v193q0 36 21 57t57 21h152q36 0 57 -21t21 -57v-193zM251 573
q0 12 -12 12h-58q-12 0 -12 -12v-173q0 -12 12 -12h58q12 0 12 12v173zM251 283q0 12 -12 12h-58q-12 0 -12 -12v-181q0 -12 12 -12h58q12 0 12 12v181z" />
    <glyph glyph-name="nine" unicode="9" horiz-adv-x="420" 
d="M233 89q12 0 12 12v132h-111q-36 0 -57 21t-21 57v286q0 36 21 57t57 21h146q36 0 57 -21t21 -57v-524q0 -36 -21 -57t-57 -21h-209v94h162zM238 327q12 0 12 12v229q0 12 -12 12h-62q-12 0 -12 -12v-229q0 -12 12 -12h62z" />
    <glyph glyph-name="colon" unicode=":" horiz-adv-x="218" 
d="M172 246h-126v156h126v-156zM172 0h-126v156h126v-156z" />
    <glyph glyph-name="semicolon" unicode=";" horiz-adv-x="291" 
d="M245 246h-126v156h126v-156zM117 139h128l-90 -274h-109z" />
    <glyph glyph-name="less" unicode="&#x3c;" horiz-adv-x="507" 
d="M69 237v136l369 143v-122l-271 -85l271 -86v-130z" />
    <glyph glyph-name="equal" unicode="=" horiz-adv-x="469" 
d="M69 350v99h331v-99h-331zM69 161v99h331v-99h-331z" />
    <glyph glyph-name="greater" unicode="&#x3e;" horiz-adv-x="507" 
d="M69 93v130l271 86l-271 85v122l369 -143v-136z" />
    <glyph glyph-name="question" unicode="?" horiz-adv-x="410" 
d="M269 676q53 0 72 -22.5t19 -54.5v-156q0 -45 -25.5 -71t-75.5 -26h-41q-4 0 -7.5 -3t-3.5 -8v-111h-112v138q0 32 17.5 55t65.5 23h65q10 0 10 10v115q0 10 -10 10h-193v101h219zM215 0h-126v156h126v-156z" />
    <glyph glyph-name="at" unicode="@" horiz-adv-x="820" 
d="M169 0q-35 0 -57 22t-22 57v517q0 35 22 57t57 22h482q35 0 57 -22t22 -57v-338q0 -35 -22 -57t-57 -22h-203v93h-79v-93h-89v292q0 18 11.5 29.5t29.5 11.5h176q18 0 29.5 -11.5t11.5 -29.5v-216h76q5 0 9.5 4.5t4.5 9.5v307q0 5 -4.5 9.5t-9.5 4.5h-410q-4 0 -8 -4.5
t-4 -9.5v-480q0 -5 4 -8t8 -3h526v-85h-561zM448 348v83q0 10 -13 10h-54q-12 0 -12 -10v-83h79z" />
    <glyph glyph-name="A" unicode="A" horiz-adv-x="428" 
d="M254 289v273q0 15 -14 15h-52q-14 0 -14 -15v-273h80zM365 0h-111v196h-80v-196h-111v606q0 30 19 49.5t49 19.5h165q31 0 50 -19.5t19 -49.5v-606z" />
    <glyph glyph-name="B" unicode="B" horiz-adv-x="437" 
d="M69 0v675h244q30 0 49 -19t19 -49v-189q0 -40 -20 -57.5t-51 -21.5q31 -5 50 -23.5t19 -53.5v-194q0 -30 -19 -49t-48 -19h-243zM267 559q0 16 -16 16h-69v-186h69q16 0 16 16v154zM267 279q0 16 -16 16h-69v-195h69q16 0 16 15v164z" />
    <glyph glyph-name="C" unicode="C" horiz-adv-x="403" 
d="M364 252v-176q0 -37 -21.5 -59.5t-58.5 -22.5h-140q-36 0 -58.5 22.5t-22.5 59.5v522q0 38 22.5 60.5t58.5 22.5h140q37 0 58.5 -22.5t21.5 -60.5v-173h-112v147q0 11 -7 11h-62q-7 0 -7 -11v-470q0 -10 7 -10h62q7 0 7 10v150h112z" />
    <glyph glyph-name="D" unicode="D" horiz-adv-x="443" 
d="M287 675q42 0 67.5 -25.5t25.5 -67.5v-489q0 -42 -25.5 -67.5t-67.5 -25.5h-218v675h218zM267 562q0 16 -16 16h-69v-481h69q16 0 16 16v449z" />
    <glyph glyph-name="E" unicode="E" horiz-adv-x="358" 
d="M69 675h249v-97h-136v-190h111v-94h-111v-197h136v-97h-249v675z" />
    <glyph glyph-name="F" unicode="F" horiz-adv-x="344" 
d="M69 675h251v-97h-139v-217h115v-97h-115v-264h-112v675z" />
    <glyph glyph-name="G" unicode="G" horiz-adv-x="421" 
d="M144 -5q-38 0 -59.5 22.5t-21.5 59.5v521q0 38 21.5 60.5t59.5 22.5h215v-105h-176q-7 0 -7 -11v-456q0 -10 7 -10h66q8 0 8 10v208h-38v95h172v-95h-33v-240q0 -37 -22 -59.5t-60 -22.5h-132z" />
    <glyph glyph-name="H" unicode="H" horiz-adv-x="452" 
d="M69 0v675h111v-297h92v297h111v-675h-111v285h-92v-285h-111z" />
    <glyph glyph-name="I" unicode="I" horiz-adv-x="245" 
d="M176 0h-107v675h107v-675z" />
    <glyph glyph-name="J" unicode="J" horiz-adv-x="391" 
d="M149 324v-222q0 -4 3 -6.5t6 -2.5h42q11 0 11 9v573h111v-603q0 -33 -22 -55t-54 -22h-126q-31 0 -54 22t-23 55v252h106z" />
    <glyph glyph-name="K" unicode="K" horiz-adv-x="431" 
d="M69 0v675h111v-287l114 287h112l-136 -320l140 -355h-116l-98 260l-16 -20v-240h-111z" />
    <glyph glyph-name="L" unicode="L" horiz-adv-x="331" 
d="M69 675h112v-575h130v-100h-242v675z" />
    <glyph glyph-name="M" unicode="M" horiz-adv-x="525" 
d="M170 400v-400h-101v675h99l95 -319l90 319h103v-675h-106v400l-71 -218h-39z" />
    <glyph glyph-name="N" unicode="N" horiz-adv-x="455" 
d="M164 380v-380h-95v675h94l128 -406v406h95v-675h-93z" />
    <glyph glyph-name="O" unicode="O" horiz-adv-x="437" 
d="M305 681q30 0 49.5 -19.5t19.5 -49.5v-548q0 -30 -19.5 -49.5t-49.5 -19.5h-173q-31 0 -50 19.5t-19 49.5v548q0 30 19 49.5t50 19.5h173zM261 576q0 5 -2 8t-4 3h-74q-4 0 -4.5 -4t-0.5 -7v-475q0 -2 1 -5.5t4 -3.5h74q2 0 4 2.5t2 6.5v475z" />
    <glyph glyph-name="P" unicode="P" horiz-adv-x="427" 
d="M258 281q3 0 5 3t2 6v278q0 10 -7 10h-75v-297h75zM183 187v-187h-114v675h227q38 0 60.5 -22.5t22.5 -60.5v-322q0 -38 -22.5 -60.5t-60.5 -22.5h-113z" />
    <glyph glyph-name="Q" unicode="Q" horiz-adv-x="438" 
d="M223 -101l-35 101h-44q-38 0 -59.5 22.5t-21.5 59.5v510q0 38 21.5 60.5t59.5 22.5h149q37 0 59.5 -22.5t22.5 -60.5v-510q0 -37 -22.5 -59.5t-58.5 -22.5l36 -101h-107zM261 567q0 11 -7 11h-73q-5 0 -5 -11v-461q0 -9 5 -9h73q7 0 7 9v461z" />
    <glyph glyph-name="R" unicode="R" horiz-adv-x="431" 
d="M267 568q0 10 -7 10h-78v-260h78q2 0 4.5 3t2.5 6v241zM220 225h-38v-225h-113v675h227q38 0 59.5 -22.5t21.5 -60.5v-284q0 -29 -13.5 -49.5t-36.5 -28.5l51 -230h-111z" />
    <glyph glyph-name="S" unicode="S" horiz-adv-x="334" 
d="M43 101h131q8 0 8 9v169q0 9 -8 9h-63q-30 0 -49 19.5t-19 49.5v249q0 30 19 49.5t49 19.5h177v-97h-127q-7 0 -7 -11v-165q0 -3 2 -6t5 -3h64q30 0 49.5 -19.5t19.5 -49.5v-255q0 -30 -19.5 -49.5t-49.5 -19.5h-182v101z" />
    <glyph glyph-name="T" unicode="T" horiz-adv-x="314" 
d="M213 578v-578h-112v578h-85v97h282v-97h-85z" />
    <glyph glyph-name="U" unicode="U" 
d="M182 675v-572q0 -4 2 -6.5t4 -2.5h68q2 0 4 2.5t2 6.5v572h114v-593q0 -37 -22.5 -59.5t-60.5 -22.5h-142q-38 0 -60 22.5t-22 59.5v593h113z" />
    <glyph glyph-name="V" unicode="V" horiz-adv-x="394" 
d="M141 0l-109 675h114l53 -469l54 469h109l-108 -675h-113z" />
    <glyph glyph-name="W" unicode="W" horiz-adv-x="558" 
d="M215 0h-95l-88 675h106l41 -437l54 437h94l57 -440l42 440h100l-87 -675h-94l-65 449z" />
    <glyph glyph-name="X" unicode="X" horiz-adv-x="390" 
d="M187 201l-57 -201h-108l117 343l-113 332h112l67 -203l51 203h106l-109 -346l111 -329h-111z" />
    <glyph glyph-name="Y" unicode="Y" horiz-adv-x="405" 
d="M258 208v-208h-111v208h-16q-38 0 -60 21.5t-22 58.5v387h112v-360q0 -4 3 -7t5 -3h71q4 0 4 10v360h112v-387q0 -37 -22.5 -58.5t-60.5 -21.5h-15z" />
    <glyph glyph-name="Z" unicode="Z" horiz-adv-x="339" 
d="M31 0v87l159 494h-147v94h258v-87l-156 -494h163v-94h-277z" />
    <glyph glyph-name="bracketleft" unicode="[" horiz-adv-x="302" 
d="M60 750h222v-93h-115v-717h115v-93h-222v903z" />
    <glyph glyph-name="backslash" unicode="\" horiz-adv-x="370" 
d="M15 746h101l239 -817h-102z" />
    <glyph glyph-name="bracketright" unicode="]" horiz-adv-x="302" 
d="M20 -60h115v717h-115v93h222v-903h-222v93z" />
    <glyph glyph-name="asciicircum" unicode="^" horiz-adv-x="349" 
d="M103 742h-103l124 138h76l124 -138h-103l-59 68z" />
    <glyph glyph-name="underscore" unicode="_" horiz-adv-x="531" 
d="M499 -63v-113h-467v113h467z" />
    <glyph glyph-name="grave" unicode="`" horiz-adv-x="231" 
d="M0 881h118l58 -138h-89z" />
    <glyph glyph-name="a" unicode="a" horiz-adv-x="428" 
d="M254 289v273q0 15 -14 15h-52q-14 0 -14 -15v-273h80zM365 0h-111v196h-80v-196h-111v606q0 30 19 49.5t49 19.5h165q31 0 50 -19.5t19 -49.5v-606z" />
    <glyph glyph-name="b" unicode="b" horiz-adv-x="437" 
d="M69 0v675h244q30 0 49 -19t19 -49v-189q0 -40 -20 -57.5t-51 -21.5q31 -5 50 -23.5t19 -53.5v-194q0 -30 -19 -49t-48 -19h-243zM267 559q0 16 -16 16h-69v-186h69q16 0 16 16v154zM267 279q0 16 -16 16h-69v-195h69q16 0 16 15v164z" />
    <glyph glyph-name="c" unicode="c" horiz-adv-x="403" 
d="M364 252v-176q0 -37 -21.5 -59.5t-58.5 -22.5h-140q-36 0 -58.5 22.5t-22.5 59.5v522q0 38 22.5 60.5t58.5 22.5h140q37 0 58.5 -22.5t21.5 -60.5v-173h-112v147q0 11 -7 11h-62q-7 0 -7 -11v-470q0 -10 7 -10h62q2 0 4.5 10t2.5 15v135h112z" />
    <glyph glyph-name="d" unicode="d" horiz-adv-x="443" 
d="M287 675q42 0 67.5 -25.5t25.5 -67.5v-489q0 -42 -25.5 -67.5t-67.5 -25.5h-218v675h218zM267 562q0 16 -16 16h-69v-481h69q16 0 16 16v449z" />
    <glyph glyph-name="e" unicode="e" horiz-adv-x="358" 
d="M69 675h249v-97h-136v-190h111v-94h-111v-197h136v-97h-249v675z" />
    <glyph glyph-name="f" unicode="f" horiz-adv-x="344" 
d="M69 675h251v-97h-139v-217h115v-97h-115v-264h-112v675z" />
    <glyph glyph-name="g" unicode="g" horiz-adv-x="421" 
d="M144 -5q-38 0 -59.5 22.5t-21.5 59.5v521q0 38 21.5 60.5t59.5 22.5h215v-105h-176q-7 0 -7 -11v-456q0 -10 7 -10h66q8 0 8 10v208h-38v95h172v-95h-33v-240q0 -37 -22 -59.5t-60 -22.5h-132z" />
    <glyph glyph-name="h" unicode="h" horiz-adv-x="452" 
d="M69 0v675h111v-297h92v297h111v-675h-111v285h-92v-285h-111z" />
    <glyph glyph-name="i" unicode="i" horiz-adv-x="245" 
d="M176 0h-107v675h107v-675z" />
    <glyph glyph-name="j" unicode="j" horiz-adv-x="391" 
d="M149 324v-222q0 -4 3 -6.5t6 -2.5h42q11 0 11 9v573h111v-603q0 -33 -22 -55t-54 -22h-126q-31 0 -54 22t-23 55v252h106z" />
    <glyph glyph-name="k" unicode="k" horiz-adv-x="431" 
d="M69 0v675h111v-287l114 287h112l-136 -320l140 -355h-116l-98 260l-16 -20v-240h-111z" />
    <glyph glyph-name="l" unicode="l" horiz-adv-x="331" 
d="M69 675h112v-575h130v-100h-242v675z" />
    <glyph glyph-name="m" unicode="m" horiz-adv-x="525" 
d="M170 400v-400h-101v675h99l95 -319l90 319h103v-675h-106v400l-71 -218h-39z" />
    <glyph glyph-name="n" unicode="n" horiz-adv-x="455" 
d="M164 380v-380h-95v675h94l128 -406v406h95v-675h-93z" />
    <glyph glyph-name="o" unicode="o" horiz-adv-x="437" 
d="M305 681q30 0 49.5 -19.5t19.5 -49.5v-548q0 -30 -19.5 -49.5t-49.5 -19.5h-173q-31 0 -50 19.5t-19 49.5v548q0 30 19 49.5t50 19.5h173zM261 576q0 5 -2 8t-4 3h-74q-4 0 -4.5 -4t-0.5 -7v-475q0 -2 1 -5.5t4 -3.5h74q2 0 4 2.5t2 6.5v475z" />
    <glyph glyph-name="p" unicode="p" horiz-adv-x="427" 
d="M258 281q3 0 5 3t2 6v278q0 10 -7 10h-75v-297h75zM183 187v-187h-114v675h227q38 0 60.5 -22.5t22.5 -60.5v-322q0 -38 -22.5 -60.5t-60.5 -22.5h-113z" />
    <glyph glyph-name="q" unicode="q" horiz-adv-x="438" 
d="M223 -101l-35 101h-44q-38 0 -59.5 22.5t-21.5 59.5v510q0 38 21.5 60.5t59.5 22.5h149q37 0 59.5 -22.5t22.5 -60.5v-510q0 -37 -22.5 -59.5t-58.5 -22.5l36 -101h-107zM261 567q0 11 -7 11h-73q-5 0 -5 -11v-461q0 -9 5 -9h73q7 0 7 9v461z" />
    <glyph glyph-name="r" unicode="r" horiz-adv-x="431" 
d="M267 568q0 10 -7 10h-78v-260h78q2 0 4.5 3t2.5 6v241zM220 225h-38v-225h-113v675h227q38 0 59.5 -22.5t21.5 -60.5v-284q0 -29 -13.5 -49.5t-36.5 -28.5l51 -230h-111z" />
    <glyph glyph-name="s" unicode="s" horiz-adv-x="334" 
d="M43 101h131q8 0 8 9v169q0 9 -8 9h-63q-30 0 -49 19.5t-19 49.5v249q0 30 19 49.5t49 19.5h177v-97h-127q-7 0 -7 -11v-165q0 -3 2 -6t5 -3h64q30 0 49.5 -19.5t19.5 -49.5v-255q0 -30 -19.5 -49.5t-49.5 -19.5h-182v101z" />
    <glyph glyph-name="t" unicode="t" horiz-adv-x="314" 
d="M213 578v-578h-112v578h-85v97h282v-97h-85z" />
    <glyph glyph-name="u" unicode="u" 
d="M182 675v-572q0 -4 2 -6.5t4 -2.5h68q2 0 4 2.5t2 6.5v572h114v-593q0 -37 -22.5 -59.5t-60.5 -22.5h-142q-38 0 -60 22.5t-22 59.5v593h113z" />
    <glyph glyph-name="v" unicode="v" horiz-adv-x="394" 
d="M141 0l-109 675h114l53 -469l54 469h109l-108 -675h-113z" />
    <glyph glyph-name="w" unicode="w" horiz-adv-x="558" 
d="M215 0h-95l-88 675h106l41 -437l54 437h94l57 -440l42 440h100l-87 -675h-94l-65 449z" />
    <glyph glyph-name="x" unicode="x" horiz-adv-x="390" 
d="M187 201l-57 -201h-108l117 343l-113 332h112l67 -203l51 203h106l-109 -346l111 -329h-111z" />
    <glyph glyph-name="y" unicode="y" horiz-adv-x="405" 
d="M258 208v-208h-111v208h-16q-38 0 -60 21.5t-22 58.5v387h112v-360q0 -4 3 -7t5 -3h71q4 0 4 10v360h112v-387q0 -37 -22.5 -58.5t-60.5 -21.5h-15z" />
    <glyph glyph-name="z" unicode="z" horiz-adv-x="339" 
d="M31 0v87l159 494h-147v94h258v-87l-156 -494h163v-94h-277z" />
    <glyph glyph-name="braceleft" unicode="{" horiz-adv-x="351" 
d="M232 -155q-63 0 -95 33.5t-32 95.5v198q0 31 -14.5 44t-40.5 13h-35v138h35q26 0 40.5 13t14.5 44v197q0 62 32 95.5t95 33.5h114v-93h-79q-26 0 -40.5 -13t-14.5 -44v-224q0 -20 -6.5 -33t-18 -21.5t-26 -14t-30.5 -9.5q16 -4 30.5 -9.5t26 -14t18 -21.5t6.5 -33v-225
q0 -31 14.5 -44t40.5 -13h79v-93h-114z" />
    <glyph glyph-name="bar" unicode="|" horiz-adv-x="249" 
d="M69 -304v1164h111v-1164h-111z" />
    <glyph glyph-name="braceright" unicode="}" horiz-adv-x="351" 
d="M5 -62h79q26 0 40.5 13t14.5 44v225q0 20 7 33t18 21.5t25.5 14t30.5 9.5q-16 4 -30.5 9.5t-25.5 14t-18 21.5t-7 33v224q0 31 -14.5 44t-40.5 13h-79v93h114q63 0 95 -33.5t32 -95.5v-197q0 -31 14.5 -44t40.5 -13h35v-138h-35q-26 0 -40.5 -13t-14.5 -44v-198
q0 -62 -32 -95.5t-95 -33.5h-114v93z" />
    <glyph glyph-name="asciitilde" unicode="~" horiz-adv-x="347" 
d="M98 586q22 0 38 -7t28 -15l22.5 -15t22.5 -7q17 0 25 13t8 30h76q0 -60 -26.5 -90t-70.5 -30q-22 0 -38 6.5t-28.5 15t-23.5 15t-23 6.5q-17 0 -24.5 -12.5t-7.5 -29.5h-76q0 60 26.5 90t71.5 30z" />
    <glyph glyph-name="uni00A0" unicode="&#xa0;" horiz-adv-x="154" 
 />
    <glyph glyph-name="exclamdown" unicode="&#xa1;" horiz-adv-x="231" 
d="M177 519h-126v156h126v-156zM185 0h-139l9 442h119z" />
    <glyph glyph-name="cent" unicode="&#xa2;" horiz-adv-x="412" 
d="M253 0v-96h-86v96h-42q-28 0 -45 16.5t-17 45.5v377q0 26 16 43.5t44 17.5h44v105h86v-105h56q32 0 48 -18t16 -48v-119h-111v90q0 8 -6 8h-74q-8 0 -8 -8v-310q0 -7 8 -7h74q6 0 6 7v91h111v-129q0 -25 -15.5 -41t-43.5 -16h-61z" />
    <glyph glyph-name="sterling" unicode="&#xa3;" horiz-adv-x="460" 
d="M39 0v94h82v175h-89v91h89v239q0 31 22.5 53.5t54.5 22.5h133q32 0 55.5 -22.5t23.5 -53.5v-149h-105v120q0 5 -3 8t-6 3h-53q-11 0 -11 -11v-210h142v-91h-142v-175h189v-94h-382z" />
    <glyph glyph-name="yen" unicode="&#xa5;" horiz-adv-x="491" 
d="M302 110v-110h-111v110h-140v94h140v75h-140v94h108l-127 302h132l84 -246l89 246h122l-130 -302h113v-94h-140v-75h140v-94h-140z" />
    <glyph glyph-name="brokenbar" unicode="&#xa6;" horiz-adv-x="249" 
d="M69 396v464h111v-464h-111zM69 -304v478h111v-478h-111z" />
    <glyph glyph-name="section" unicode="&#xa7;" horiz-adv-x="393" 
d="M62 -60h151q10 0 10 11v90q0 6 -10 9l-91 35q-37 14 -58 29t-21 50v432q0 35 22 57t57 22h216v-94h-179q-10 0 -10 -11v-90q0 -6 10 -9l112 -40q36 -13 57.5 -28.5t21.5 -50.5v-427q0 -35 -22 -57t-57 -22h-209v94zM244 139v184q0 5 -3.5 7t-11.5 5l-80 36v-184
q0 -5 3.5 -7t11.5 -5z" />
    <glyph glyph-name="dieresis" unicode="&#xa8;" horiz-adv-x="349" 
d="M180 875h113v-110h-113v110zM0 875h113v-110h-113v110z" />
    <glyph glyph-name="copyright" unicode="&#xa9;" horiz-adv-x="820" 
d="M651 675q35 0 57 -22t22 -57v-517q0 -35 -22 -57t-57 -22h-482q-35 0 -57 22t-22 57v517q0 35 22 57t57 22h482zM628 576q0 5 -4.5 9.5t-9.5 4.5h-410q-4 0 -8 -4.5t-4 -9.5v-480q0 -5 4 -8t8 -3h410q5 0 9.5 3t4.5 8v480zM550 290v-98q0 -18 -13 -31t-31 -13h-191
q-18 0 -30 13t-12 31v293q0 18 12 30.5t30 12.5h191q18 0 31 -12.5t13 -30.5v-98h-98v53q0 7 -4 7h-72q-6 0 -6 -7v-204q0 -5 6 -5h72q4 0 4 5v54h98z" />
    <glyph glyph-name="ordfeminine" unicode="&#xaa;" horiz-adv-x="230" 
d="M138 567v61q0 6 -7 6h-33q-6 0 -6 -6v-61h46zM190 473h-52v50h-46v-50h-52v178q0 11 6 17.5t17 6.5h103q11 0 17.5 -6.5t6.5 -17.5v-178z" />
    <glyph glyph-name="guillemotleft" unicode="&#xab;" horiz-adv-x="661" 
d="M57 301v71l232 150v-119l-131 -65l131 -65v-123zM334 301v71l232 150v-119l-131 -65l131 -65v-123z" />
    <glyph glyph-name="registered" unicode="&#xae;" horiz-adv-x="820" 
d="M651 675q35 0 57 -22t22 -57v-517q0 -35 -22 -57t-57 -22h-482q-35 0 -57 22t-22 57v517q0 35 22 57t57 22h482zM628 576q0 5 -4.5 9.5t-9.5 4.5h-410q-4 0 -8 -4.5t-4 -9.5v-480q0 -5 4 -8t8 -3h410q5 0 9.5 3t4.5 8v480zM457 441q0 5 -5 5h-82v-101h82q5 0 5 5v91z
M412 269h-42v-121h-98v380h239q18 0 30.5 -12.5t12.5 -30.5v-173q0 -19 -12.5 -31t-30.5 -12h-2l47 -121h-96z" />
    <glyph glyph-name="macron" unicode="&#xaf;" horiz-adv-x="310" 
d="M0 865h275v-88h-275v88z" />
    <glyph glyph-name="degree" unicode="&#xb0;" horiz-adv-x="276" 
d="M253 641q0 -59 -32 -86t-83 -27q-22 0 -43 6.5t-37 20.5t-25.5 35.5t-9.5 50.5t9.5 50.5t25.5 35.5t37 21t43 7q51 0 83 -27.5t32 -86.5zM93 641q0 -23 12 -35.5t33 -12.5q22 0 34 12.5t12 35.5t-12 36t-33 13t-33.5 -13t-12.5 -36z" />
    <glyph glyph-name="plusminus" unicode="&#xb1;" horiz-adv-x="527" 
d="M313 298v-128h-107v128h-137v94h137v125h107v-125h137v-94h-137zM69 0v94h389v-94h-389z" />
    <glyph glyph-name="acute" unicode="&#xb4;" horiz-adv-x="231" 
d="M0 743l59 138h117l-87 -138h-89z" />
    <glyph glyph-name="paragraph" unicode="&#xb6;" horiz-adv-x="551" 
d="M321 572h-61v-572h-106v259h-15q-31 0 -53.5 23t-22.5 53v264q0 32 22.5 54t53.5 22h380v-103h-97v-572h-101v572z" />
    <glyph glyph-name="periodcentered" unicode="&#xb7;" horiz-adv-x="264" 
d="M195 265h-126v156h126v-156z" />
    <glyph glyph-name="cedilla" unicode="&#xb8;" horiz-adv-x="331" 
d="M12 -222l12 65h124q4 0 5 4l6 37q0 4 -3 4h-126l18 109h63l-9 -47h104q14 0 21.5 -8t4.5 -22l-18 -109q-2 -15 -12 -24t-24 -9h-166z" />
    <glyph glyph-name="ordmasculine" unicode="&#xba;" horiz-adv-x="232" 
d="M168 675q11 0 17.5 -6.5t6.5 -17.5v-155q0 -11 -6.5 -17t-17.5 -6h-104q-11 0 -17.5 6t-6.5 17v155q0 11 6.5 17.5t17.5 6.5h104zM139 628q0 3 -3 3h-41q-3 0 -3 -3v-109q0 -3 3 -3h41q3 0 3 3v109z" />
    <glyph glyph-name="guillemotright" unicode="&#xbb;" horiz-adv-x="661" 
d="M371 150v123l131 65l-131 65v119l232 -150v-71zM94 150v123l131 65l-131 65v119l232 -150v-71z" />
    <glyph glyph-name="onequarter" unicode="&#xbc;" horiz-adv-x="424" 
d="M120 438v49h64v140l-51 -13l-8 44l65 22h58v-193h56v-49h-184zM392 368v-52h-360v52h360zM322 55h-28v-55h-61v55h-110v187h62v-135h48v135h61v-131h28v-56z" />
    <glyph glyph-name="onehalf" unicode="&#xbd;" horiz-adv-x="424" 
d="M120 438v49h64v140l-51 -13l-8 44l65 22h58v-193h56v-49h-184zM392 368v-52h-360v52h360zM186 56h112v-56h-175v121q0 27 27 27h87v42h-109v52h145q28 0 28 -28v-85q0 -28 -28 -28h-87v-45z" />
    <glyph glyph-name="threequarters" unicode="&#xbe;" horiz-adv-x="424" 
d="M135 438v51h102v48h-96v48h96v43h-102v52h138q27 0 27 -28v-58q0 -27 -28 -31q15 -5 21.5 -16t6.5 -24v-58q0 -27 -27 -27h-138zM392 368v-52h-360v52h360zM328 55h-28v-55h-61v55h-110v187h62v-135h48v135h61v-131h28v-56z" />
    <glyph glyph-name="questiondown" unicode="&#xbf;" horiz-adv-x="410" 
d="M195 675h126v-156h-126v156zM141 -1q-53 0 -72 23t-19 54v156q0 45 25.5 71t75.5 26h41q4 0 7.5 3t3.5 8v111h112v-138q0 -32 -17.5 -55t-65.5 -23h-65q-10 0 -10 -10v-115q0 -10 10 -10h193v-101h-219z" />
    <glyph glyph-name="Agrave" unicode="&#xc0;" horiz-adv-x="428" 
d="M82 881h118l58 -138h-89zM254 289v273q0 15 -14 15h-52q-14 0 -14 -15v-273h80zM365 0h-111v196h-80v-196h-111v606q0 30 19 49.5t49 19.5h165q31 0 50 -19.5t19 -49.5v-606z" />
    <glyph glyph-name="Aacute" unicode="&#xc1;" horiz-adv-x="428" 
d="M167 743l59 138h117l-87 -138h-89zM254 289v273q0 15 -14 15h-52q-14 0 -14 -15v-273h80zM365 0h-111v196h-80v-196h-111v606q0 30 19 49.5t49 19.5h165q31 0 50 -19.5t19 -49.5v-606z" />
    <glyph glyph-name="Acircumflex" unicode="&#xc2;" horiz-adv-x="428" 
d="M153 742h-103l124 138h76l124 -138h-103l-59 68zM254 289v273q0 15 -14 15h-52q-14 0 -14 -15v-273h80zM365 0h-111v196h-80v-196h-111v606q0 30 19 49.5t49 19.5h165q31 0 50 -19.5t19 -49.5v-606z" />
    <glyph glyph-name="Atilde" unicode="&#xc3;" horiz-adv-x="428" 
d="M153 860q22 0 38 -7t28 -15l22.5 -15t22.5 -7q17 0 25 13t8 30h76q0 -60 -26.5 -90t-70.5 -30q-22 0 -38 6.5t-28.5 15t-23.5 15t-23 6.5q-17 0 -24.5 -12.5t-7.5 -29.5h-76q0 60 26.5 90t71.5 30zM254 289v273q0 15 -14 15h-52q-14 0 -14 -15v-273h80zM365 0h-111v196
h-80v-196h-111v606q0 30 19 49.5t49 19.5h165q31 0 50 -19.5t19 -49.5v-606z" />
    <glyph glyph-name="Adieresis" unicode="&#xc4;" horiz-adv-x="428" 
d="M249 875h113v-110h-113v110zM69 875h113v-110h-113v110zM254 289v273q0 15 -14 15h-52q-14 0 -14 -15v-273h80zM365 0h-111v196h-80v-196h-111v606q0 30 19 49.5t49 19.5h165q31 0 50 -19.5t19 -49.5v-606z" />
    <glyph glyph-name="Aring" unicode="&#xc5;" horiz-adv-x="428" 
d="M312 833q0 -39 -28 -67.5t-71 -28.5q-19 0 -37 7.5t-31.5 21t-21.5 31t-8 36.5q0 20 8 37.5t21.5 30t31.5 20t37 7.5q43 0 71 -27.5t28 -67.5zM173 833q0 -18 10.5 -29t29.5 -11q18 0 30 11t12 29q0 22 -12 32t-30 10q-40 0 -40 -42zM254 289v273q0 15 -14 15h-52
q-14 0 -14 -15v-273h80zM365 0h-111v196h-80v-196h-111v606q0 30 19 49.5t49 19.5h165q31 0 50 -19.5t19 -49.5v-606z" />
    <glyph glyph-name="AE" unicode="&#xc6;" horiz-adv-x="570" 
d="M264 289v288h-76q-14 0 -14 -15v-273h90zM264 0v196h-90v-196h-111v606q0 30 19 49.5t49 19.5h399v-97h-154v-190h129v-94h-129v-197h154v-97h-266z" />
    <glyph glyph-name="Ccedilla" unicode="&#xc7;" horiz-adv-x="403" 
d="M313 -189q-2 -15 -12 -24t-24 -9h-166l12 65h124q4 0 5 4l6 37q0 4 -3 4h-126l18 106h-3q-36 0 -58.5 22.5t-22.5 59.5v522q0 38 22.5 60.5t58.5 22.5h140q37 0 58.5 -22.5t21.5 -60.5v-173h-112v147q0 11 -7 11h-62q-7 0 -7 -11v-470q0 -10 7 -10h62q7 0 7 10v150h112
v-176q0 -37 -21.5 -59.5t-58.5 -22.5h-75l-8 -44h104q14 0 21.5 -8t4.5 -22z" />
    <glyph glyph-name="Egrave" unicode="&#xc8;" horiz-adv-x="358" 
d="M67 881h118l58 -138h-89zM69 675h249v-97h-136v-190h111v-94h-111v-197h136v-97h-249v675z" />
    <glyph glyph-name="Eacute" unicode="&#xc9;" horiz-adv-x="358" 
d="M152 743l59 138h117l-87 -138h-89zM69 675h249v-97h-136v-190h111v-94h-111v-197h136v-97h-249v675z" />
    <glyph glyph-name="Ecircumflex" unicode="&#xca;" horiz-adv-x="358" 
d="M138 742h-103l124 138h76l124 -138h-103l-59 68zM69 675h249v-97h-136v-190h111v-94h-111v-197h136v-97h-249v675z" />
    <glyph glyph-name="Edieresis" unicode="&#xcb;" horiz-adv-x="358" 
d="M234 875h113v-110h-113v110zM54 875h113v-110h-113v110zM69 675h249v-97h-136v-190h111v-94h-111v-197h136v-97h-249v675z" />
    <glyph glyph-name="Igrave" unicode="&#xcc;" horiz-adv-x="245" 
d="M-9 881h118l58 -138h-89zM176 0h-107v675h107v-675z" />
    <glyph glyph-name="Iacute" unicode="&#xcd;" horiz-adv-x="245" 
d="M76 743l59 138h117l-87 -138h-89zM176 0h-107v675h107v-675z" />
    <glyph glyph-name="Icircumflex" unicode="&#xce;" horiz-adv-x="245" 
d="M62 742h-103l124 138h76l124 -138h-103l-59 68zM176 0h-107v675h107v-675z" />
    <glyph glyph-name="Idieresis" unicode="&#xcf;" horiz-adv-x="245" 
d="M158 875h113v-110h-113v110zM-22 875h113v-110h-113v110zM176 0h-107v675h107v-675z" />
    <glyph glyph-name="Eth" unicode="&#xd0;" horiz-adv-x="434" 
d="M69 0v292h-38v87h38v296h210q42 0 67.5 -25.5t25.5 -67.5v-489q0 -42 -25.5 -67.5t-67.5 -25.5h-210zM245 97q16 0 16 16v449q0 16 -16 16h-63v-199h36v-87h-36v-195h63z" />
    <glyph glyph-name="Ntilde" unicode="&#xd1;" horiz-adv-x="455" 
d="M171 860q22 0 38 -7t28 -15l22.5 -15t22.5 -7q17 0 25 13t8 30h76q0 -60 -26.5 -90t-70.5 -30q-22 0 -38 6.5t-28.5 15t-23.5 15t-23 6.5q-17 0 -24.5 -12.5t-7.5 -29.5h-76q0 60 26.5 90t71.5 30zM164 380v-380h-95v675h94l128 -406v406h95v-675h-93z" />
    <glyph glyph-name="Ograve" unicode="&#xd2;" horiz-adv-x="437" 
d="M89 881h118l58 -138h-89zM305 681q30 0 49.5 -19.5t19.5 -49.5v-548q0 -30 -19.5 -49.5t-49.5 -19.5h-173q-31 0 -50 19.5t-19 49.5v548q0 30 19 49.5t50 19.5h173zM261 576q0 5 -2 8t-4 3h-74q-4 0 -4.5 -4t-0.5 -7v-475q0 -2 1 -5.5t4 -3.5h74q2 0 4 2.5t2 6.5v475z
" />
    <glyph glyph-name="Oacute" unicode="&#xd3;" horiz-adv-x="437" 
d="M174 743l59 138h117l-87 -138h-89zM305 681q30 0 49.5 -19.5t19.5 -49.5v-548q0 -30 -19.5 -49.5t-49.5 -19.5h-173q-31 0 -50 19.5t-19 49.5v548q0 30 19 49.5t50 19.5h173zM261 576q0 5 -2 8t-4 3h-74q-4 0 -4.5 -4t-0.5 -7v-475q0 -2 1 -5.5t4 -3.5h74q2 0 4 2.5
t2 6.5v475z" />
    <glyph glyph-name="Ocircumflex" unicode="&#xd4;" horiz-adv-x="437" 
d="M160 742h-103l124 138h76l124 -138h-103l-59 68zM305 681q30 0 49.5 -19.5t19.5 -49.5v-548q0 -30 -19.5 -49.5t-49.5 -19.5h-173q-31 0 -50 19.5t-19 49.5v548q0 30 19 49.5t50 19.5h173zM261 576q0 5 -2 8t-4 3h-74q-4 0 -4.5 -4t-0.5 -7v-475q0 -2 1 -5.5t4 -3.5h74
q2 0 4 2.5t2 6.5v475z" />
    <glyph glyph-name="Otilde" unicode="&#xd5;" horiz-adv-x="437" 
d="M160 860q22 0 38 -7t28 -15l22.5 -15t22.5 -7q17 0 25 13t8 30h76q0 -60 -26.5 -90t-70.5 -30q-22 0 -38 6.5t-28.5 15t-23.5 15t-23 6.5q-17 0 -24.5 -12.5t-7.5 -29.5h-76q0 60 26.5 90t71.5 30zM305 681q30 0 49.5 -19.5t19.5 -49.5v-548q0 -30 -19.5 -49.5
t-49.5 -19.5h-173q-31 0 -50 19.5t-19 49.5v548q0 30 19 49.5t50 19.5h173zM261 576q0 5 -2 8t-4 3h-74q-4 0 -4.5 -4t-0.5 -7v-475q0 -2 1 -5.5t4 -3.5h74q2 0 4 2.5t2 6.5v475z" />
    <glyph glyph-name="Odieresis" unicode="&#xd6;" horiz-adv-x="437" 
d="M256 875h113v-110h-113v110zM76 875h113v-110h-113v110zM305 681q30 0 49.5 -19.5t19.5 -49.5v-548q0 -30 -19.5 -49.5t-49.5 -19.5h-173q-31 0 -50 19.5t-19 49.5v548q0 30 19 49.5t50 19.5h173zM261 576q0 5 -2 8t-4 3h-74q-4 0 -4.5 -4t-0.5 -7v-475q0 -2 1 -5.5
t4 -3.5h74q2 0 4 2.5t2 6.5v475z" />
    <glyph glyph-name="multiply" unicode="&#xd7;" horiz-adv-x="460" 
d="M230 245l-106 -106l-69 70l106 106l-106 105l70 69l105 -105l105 105l70 -69l-105 -105l105 -106l-69 -70z" />
    <glyph glyph-name="Oslash" unicode="&#xd8;" horiz-adv-x="437" 
d="M151 116l92 471h-77q-4 0 -4.5 -4t-0.5 -7zM286 576q0 2 -0.5 3t-0.5 3l-95 -490h80q2 0 4 2.5t2 6.5zM165 -5l-23 -68h-44l23 69q-26 3 -42 22t-16 46v548q0 30 19 49.5t50 19.5h140l19 65h44l-22 -65q27 -3 44 -22t17 -47v-548q0 -30 -19.5 -49.5t-49.5 -19.5h-140z
" />
    <glyph glyph-name="Ugrave" unicode="&#xd9;" 
d="M90 881h118l58 -138h-89zM182 675v-572q0 -4 2 -6.5t4 -2.5h68q2 0 4 2.5t2 6.5v572h114v-593q0 -37 -22.5 -59.5t-60.5 -22.5h-142q-38 0 -60 22.5t-22 59.5v593h113z" />
    <glyph glyph-name="Uacute" unicode="&#xda;" 
d="M175 743l59 138h117l-87 -138h-89zM182 675v-572q0 -4 2 -6.5t4 -2.5h68q2 0 4 2.5t2 6.5v572h114v-593q0 -37 -22.5 -59.5t-60.5 -22.5h-142q-38 0 -60 22.5t-22 59.5v593h113z" />
    <glyph glyph-name="Ucircumflex" unicode="&#xdb;" 
d="M161 742h-103l124 138h76l124 -138h-103l-59 68zM182 675v-572q0 -4 2 -6.5t4 -2.5h68q2 0 4 2.5t2 6.5v572h114v-593q0 -37 -22.5 -59.5t-60.5 -22.5h-142q-38 0 -60 22.5t-22 59.5v593h113z" />
    <glyph glyph-name="Udieresis" unicode="&#xdc;" 
d="M257 875h113v-110h-113v110zM77 875h113v-110h-113v110zM182 675v-572q0 -4 2 -6.5t4 -2.5h68q2 0 4 2.5t2 6.5v572h114v-593q0 -37 -22.5 -59.5t-60.5 -22.5h-142q-38 0 -60 22.5t-22 59.5v593h113z" />
    <glyph glyph-name="Yacute" unicode="&#xdd;" horiz-adv-x="405" 
d="M159 743l59 138h117l-87 -138h-89zM258 208v-208h-111v208h-16q-38 0 -60 21.5t-22 58.5v387h112v-360q0 -4 3 -7t5 -3h71q4 0 4 10v360h112v-387q0 -37 -22.5 -58.5t-60.5 -21.5h-15z" />
    <glyph glyph-name="Thorn" unicode="&#xde;" 
d="M277 219q4 0 6.5 3t2.5 6v222q0 10 -9 10h-97v-241h97zM180 125v-125h-111v675h111v-119h141q31 0 53.5 -22t22.5 -54v-279q0 -30 -22.5 -53t-53.5 -23h-141z" />
    <glyph glyph-name="germandbls" unicode="&#xdf;" horiz-adv-x="508" 
d="M193 0h-111v675h303q51 0 66 -29.5t-7 -76.5l-91 -194q32 -1 52 -7.5t31 -20.5t15.5 -36t4.5 -52v-173q0 -40 -24 -63t-66 -23h-114v128h83q10 0 10 10v128q0 4 -2.5 7.5t-7.5 3.5h-81v106l70 181q6 13 -6 13h-125v-577z" />
    <glyph glyph-name="agrave" unicode="&#xe0;" horiz-adv-x="428" 
d="M82 881h118l58 -138h-89zM254 289v273q0 15 -14 15h-52q-14 0 -14 -15v-273h80zM365 0h-111v196h-80v-196h-111v606q0 30 19 49.5t49 19.5h165q31 0 50 -19.5t19 -49.5v-606z" />
    <glyph glyph-name="aacute" unicode="&#xe1;" horiz-adv-x="428" 
d="M167 743l59 138h117l-87 -138h-89zM254 289v273q0 15 -14 15h-52q-14 0 -14 -15v-273h80zM365 0h-111v196h-80v-196h-111v606q0 30 19 49.5t49 19.5h165q31 0 50 -19.5t19 -49.5v-606z" />
    <glyph glyph-name="acircumflex" unicode="&#xe2;" horiz-adv-x="428" 
d="M153 742h-103l124 138h76l124 -138h-103l-59 68zM254 289v273q0 15 -14 15h-52q-14 0 -14 -15v-273h80zM365 0h-111v196h-80v-196h-111v606q0 30 19 49.5t49 19.5h165q31 0 50 -19.5t19 -49.5v-606z" />
    <glyph glyph-name="atilde" unicode="&#xe3;" horiz-adv-x="428" 
d="M153 860q22 0 38 -7t28 -15l22.5 -15t22.5 -7q17 0 25 13t8 30h76q0 -60 -26.5 -90t-70.5 -30q-22 0 -38 6.5t-28.5 15t-23.5 15t-23 6.5q-17 0 -24.5 -12.5t-7.5 -29.5h-76q0 60 26.5 90t71.5 30zM254 289v273q0 15 -14 15h-52q-14 0 -14 -15v-273h80zM365 0h-111v196
h-80v-196h-111v606q0 30 19 49.5t49 19.5h165q31 0 50 -19.5t19 -49.5v-606z" />
    <glyph glyph-name="adieresis" unicode="&#xe4;" horiz-adv-x="428" 
d="M249 875h113v-110h-113v110zM69 875h113v-110h-113v110zM254 289v273q0 15 -14 15h-52q-14 0 -14 -15v-273h80zM365 0h-111v196h-80v-196h-111v606q0 30 19 49.5t49 19.5h165q31 0 50 -19.5t19 -49.5v-606z" />
    <glyph glyph-name="aring" unicode="&#xe5;" horiz-adv-x="428" 
d="M312 833q0 -39 -28 -67.5t-71 -28.5q-19 0 -37 7.5t-31.5 21t-21.5 31t-8 36.5q0 20 8 37.5t21.5 30t31.5 20t37 7.5q43 0 71 -27.5t28 -67.5zM173 833q0 -18 10.5 -29t29.5 -11q18 0 30 11t12 29q0 22 -12 32t-30 10q-40 0 -40 -42zM254 289v273q0 15 -14 15h-52
q-14 0 -14 -15v-273h80zM365 0h-111v196h-80v-196h-111v606q0 30 19 49.5t49 19.5h165q31 0 50 -19.5t19 -49.5v-606z" />
    <glyph glyph-name="ae" unicode="&#xe6;" horiz-adv-x="570" 
d="M264 289v288h-76q-14 0 -14 -15v-273h90zM264 0v196h-90v-196h-111v606q0 30 19 49.5t49 19.5h399v-97h-154v-190h129v-94h-129v-197h154v-97h-266z" />
    <glyph glyph-name="ccedilla" unicode="&#xe7;" horiz-adv-x="403" 
d="M313 -189q-2 -15 -12 -24t-24 -9h-166l12 65h124q4 0 5 4l6 37q0 4 -3 4h-126l18 106h-3q-36 0 -58.5 22.5t-22.5 59.5v522q0 38 22.5 60.5t58.5 22.5h140q37 0 58.5 -22.5t21.5 -60.5v-173h-112v147q0 11 -7 11h-62q-7 0 -7 -11v-470q0 -10 7 -10h62q7 0 7 10v150h112
v-176q0 -37 -21.5 -59.5t-58.5 -22.5h-75l-8 -44h104q14 0 21.5 -8t4.5 -22z" />
    <glyph glyph-name="egrave" unicode="&#xe8;" horiz-adv-x="358" 
d="M67 881h118l58 -138h-89zM69 675h249v-97h-136v-190h111v-94h-111v-197h136v-97h-249v675z" />
    <glyph glyph-name="eacute" unicode="&#xe9;" horiz-adv-x="358" 
d="M152 743l59 138h117l-87 -138h-89zM69 675h249v-97h-136v-190h111v-94h-111v-197h136v-97h-249v675z" />
    <glyph glyph-name="ecircumflex" unicode="&#xea;" horiz-adv-x="358" 
d="M138 742h-103l124 138h76l124 -138h-103l-59 68zM69 675h249v-97h-136v-190h111v-94h-111v-197h136v-97h-249v675z" />
    <glyph glyph-name="edieresis" unicode="&#xeb;" horiz-adv-x="358" 
d="M234 875h113v-110h-113v110zM54 875h113v-110h-113v110zM69 675h249v-97h-136v-190h111v-94h-111v-197h136v-97h-249v675z" />
    <glyph glyph-name="igrave" unicode="&#xec;" horiz-adv-x="245" 
d="M-9 881h118l58 -138h-89zM176 0h-107v675h107v-675z" />
    <glyph glyph-name="iacute" unicode="&#xed;" horiz-adv-x="245" 
d="M76 743l59 138h117l-87 -138h-89zM176 0h-107v675h107v-675z" />
    <glyph glyph-name="icircumflex" unicode="&#xee;" horiz-adv-x="245" 
d="M62 742h-103l124 138h76l124 -138h-103l-59 68zM176 0h-107v675h107v-675z" />
    <glyph glyph-name="idieresis" unicode="&#xef;" horiz-adv-x="245" 
d="M158 875h113v-110h-113v110zM-22 875h113v-110h-113v110zM176 0h-107v675h107v-675z" />
    <glyph glyph-name="eth" unicode="&#xf0;" horiz-adv-x="434" 
d="M69 0v292h-38v87h38v296h210q42 0 67.5 -25.5t25.5 -67.5v-489q0 -42 -25.5 -67.5t-67.5 -25.5h-210zM245 97q16 0 16 16v449q0 16 -16 16h-63v-199h36v-87h-36v-195h63z" />
    <glyph glyph-name="ntilde" unicode="&#xf1;" horiz-adv-x="455" 
d="M171 860q22 0 38 -7t28 -15l22.5 -15t22.5 -7q17 0 25 13t8 30h76q0 -60 -26.5 -90t-70.5 -30q-22 0 -38 6.5t-28.5 15t-23.5 15t-23 6.5q-17 0 -24.5 -12.5t-7.5 -29.5h-76q0 60 26.5 90t71.5 30zM164 380v-380h-95v675h94l128 -406v406h95v-675h-93z" />
    <glyph glyph-name="ograve" unicode="&#xf2;" horiz-adv-x="437" 
d="M89 881h118l58 -138h-89zM305 681q30 0 49.5 -19.5t19.5 -49.5v-548q0 -30 -19.5 -49.5t-49.5 -19.5h-173q-31 0 -50 19.5t-19 49.5v548q0 30 19 49.5t50 19.5h173zM261 576q0 5 -2 8t-4 3h-74q-4 0 -4.5 -4t-0.5 -7v-475q0 -2 1 -5.5t4 -3.5h74q2 0 4 2.5t2 6.5v475z
" />
    <glyph glyph-name="oacute" unicode="&#xf3;" horiz-adv-x="437" 
d="M174 743l59 138h117l-87 -138h-89zM305 681q30 0 49.5 -19.5t19.5 -49.5v-548q0 -30 -19.5 -49.5t-49.5 -19.5h-173q-31 0 -50 19.5t-19 49.5v548q0 30 19 49.5t50 19.5h173zM261 576q0 5 -2 8t-4 3h-74q-4 0 -4.5 -4t-0.5 -7v-475q0 -2 1 -5.5t4 -3.5h74q2 0 4 2.5
t2 6.5v475z" />
    <glyph glyph-name="ocircumflex" unicode="&#xf4;" horiz-adv-x="437" 
d="M160 742h-103l124 138h76l124 -138h-103l-59 68zM305 681q30 0 49.5 -19.5t19.5 -49.5v-548q0 -30 -19.5 -49.5t-49.5 -19.5h-173q-31 0 -50 19.5t-19 49.5v548q0 30 19 49.5t50 19.5h173zM261 576q0 5 -2 8t-4 3h-74q-4 0 -4.5 -4t-0.5 -7v-475q0 -2 1 -5.5t4 -3.5h74
q2 0 4 2.5t2 6.5v475z" />
    <glyph glyph-name="otilde" unicode="&#xf5;" horiz-adv-x="437" 
d="M160 860q22 0 38 -7t28 -15l22.5 -15t22.5 -7q17 0 25 13t8 30h76q0 -60 -26.5 -90t-70.5 -30q-22 0 -38 6.5t-28.5 15t-23.5 15t-23 6.5q-17 0 -24.5 -12.5t-7.5 -29.5h-76q0 60 26.5 90t71.5 30zM305 681q30 0 49.5 -19.5t19.5 -49.5v-548q0 -30 -19.5 -49.5
t-49.5 -19.5h-173q-31 0 -50 19.5t-19 49.5v548q0 30 19 49.5t50 19.5h173zM261 576q0 5 -2 8t-4 3h-74q-4 0 -4.5 -4t-0.5 -7v-475q0 -2 1 -5.5t4 -3.5h74q2 0 4 2.5t2 6.5v475z" />
    <glyph glyph-name="odieresis" unicode="&#xf6;" horiz-adv-x="437" 
d="M256 875h113v-110h-113v110zM76 875h113v-110h-113v110zM305 681q30 0 49.5 -19.5t19.5 -49.5v-548q0 -30 -19.5 -49.5t-49.5 -19.5h-173q-31 0 -50 19.5t-19 49.5v548q0 30 19 49.5t50 19.5h173zM261 576q0 5 -2 8t-4 3h-74q-4 0 -4.5 -4t-0.5 -7v-475q0 -2 1 -5.5
t4 -3.5h74q2 0 4 2.5t2 6.5v475z" />
    <glyph glyph-name="divide" unicode="&#xf7;" horiz-adv-x="461" 
d="M177 422v117h107v-117h-107zM41 262v104h379v-104h-379zM177 196h107v-120h-107v120z" />
    <glyph glyph-name="oslash" unicode="&#xf8;" horiz-adv-x="437" 
d="M151 116l92 471h-77q-4 0 -4.5 -4t-0.5 -7zM286 576q0 2 -0.5 3t-0.5 3l-95 -490h80q2 0 4 2.5t2 6.5zM165 -5l-23 -68h-44l23 69q-26 3 -42 22t-16 46v548q0 30 19 49.5t50 19.5h140l19 65h44l-22 -65q27 -3 44 -22t17 -47v-548q0 -30 -19.5 -49.5t-49.5 -19.5h-140z
" />
    <glyph glyph-name="ugrave" unicode="&#xf9;" 
d="M90 881h118l58 -138h-89zM182 675v-572q0 -4 2 -6.5t4 -2.5h68q2 0 4 2.5t2 6.5v572h114v-593q0 -37 -22.5 -59.5t-60.5 -22.5h-142q-38 0 -60 22.5t-22 59.5v593h113z" />
    <glyph glyph-name="uacute" unicode="&#xfa;" 
d="M175 743l59 138h117l-87 -138h-89zM182 675v-572q0 -4 2 -6.5t4 -2.5h68q2 0 4 2.5t2 6.5v572h114v-593q0 -37 -22.5 -59.5t-60.5 -22.5h-142q-38 0 -60 22.5t-22 59.5v593h113z" />
    <glyph glyph-name="ucircumflex" unicode="&#xfb;" 
d="M161 742h-103l124 138h76l124 -138h-103l-59 68zM182 675v-572q0 -4 2 -6.5t4 -2.5h68q2 0 4 2.5t2 6.5v572h114v-593q0 -37 -22.5 -59.5t-60.5 -22.5h-142q-38 0 -60 22.5t-22 59.5v593h113z" />
    <glyph glyph-name="udieresis" unicode="&#xfc;" 
d="M257 875h113v-110h-113v110zM77 875h113v-110h-113v110zM182 675v-572q0 -4 2 -6.5t4 -2.5h68q2 0 4 2.5t2 6.5v572h114v-593q0 -37 -22.5 -59.5t-60.5 -22.5h-142q-38 0 -60 22.5t-22 59.5v593h113z" />
    <glyph glyph-name="yacute" unicode="&#xfd;" horiz-adv-x="405" 
d="M159 743l59 138h117l-87 -138h-89zM258 208v-208h-111v208h-16q-38 0 -60 21.5t-22 58.5v387h112v-360q0 -4 3 -7t5 -3h71q4 0 4 10v360h112v-387q0 -37 -22.5 -58.5t-60.5 -21.5h-15z" />
    <glyph glyph-name="thorn" unicode="&#xfe;" 
d="M277 219q4 0 6.5 3t2.5 6v222q0 10 -9 10h-97v-241h97zM180 125v-125h-111v675h111v-119h141q31 0 53.5 -22t22.5 -54v-279q0 -30 -22.5 -53t-53.5 -23h-141z" />
    <glyph glyph-name="ydieresis" unicode="&#xff;" horiz-adv-x="405" 
d="M241 875h113v-110h-113v110zM61 875h113v-110h-113v110zM258 208v-208h-111v208h-16q-38 0 -60 21.5t-22 58.5v387h112v-360q0 -4 3 -7t5 -3h71q4 0 4 10v360h112v-387q0 -37 -22.5 -58.5t-60.5 -21.5h-15z" />
    <glyph glyph-name="Amacron" unicode="&#x100;" horiz-adv-x="428" 
d="M76 865h275v-88h-275v88zM254 289v273q0 15 -14 15h-52q-14 0 -14 -15v-273h80zM365 0h-111v196h-80v-196h-111v606q0 30 19 49.5t49 19.5h165q31 0 50 -19.5t19 -49.5v-606z" />
    <glyph glyph-name="amacron" unicode="&#x101;" horiz-adv-x="428" 
d="M76 865h275v-88h-275v88zM254 289v273q0 15 -14 15h-52q-14 0 -14 -15v-273h80zM365 0h-111v196h-80v-196h-111v606q0 30 19 49.5t49 19.5h165q31 0 50 -19.5t19 -49.5v-606z" />
    <glyph glyph-name="Abreve" unicode="&#x102;" horiz-adv-x="428" 
d="M213 814q29 0 41 16t12 44h84q0 -72 -37.5 -101.5t-99.5 -29.5q-30 0 -56 7t-45 22.5t-30 40.5t-11 61h88q0 -28 12.5 -44t41.5 -16zM254 289v273q0 15 -14 15h-52q-14 0 -14 -15v-273h80zM365 0h-111v196h-80v-196h-111v606q0 30 19 49.5t49 19.5h165q31 0 50 -19.5
t19 -49.5v-606z" />
    <glyph glyph-name="abreve" unicode="&#x103;" horiz-adv-x="428" 
d="M213 814q29 0 41 16t12 44h84q0 -72 -37.5 -101.5t-99.5 -29.5q-30 0 -56 7t-45 22.5t-30 40.5t-11 61h88q0 -28 12.5 -44t41.5 -16zM254 289v273q0 15 -14 15h-52q-14 0 -14 -15v-273h80zM365 0h-111v196h-80v-196h-111v606q0 30 19 49.5t49 19.5h165q31 0 50 -19.5
t19 -49.5v-606z" />
    <glyph glyph-name="Aogonek" unicode="&#x104;" horiz-adv-x="428" 
d="M254 289v273q0 15 -14 15h-52q-14 0 -14 -15v-273h80zM392 -190h-162q-15 0 -24.5 8t-9.5 22v42q0 14 3.5 22.5t10.5 19.5l48 76h-4v196h-80v-196h-111v606q0 30 19 49.5t49 19.5h165q31 0 50 -19.5t19 -49.5v-607l-74 -108h101v-81z" />
    <glyph glyph-name="aogonek" unicode="&#x105;" horiz-adv-x="428" 
d="M254 289v273q0 15 -14 15h-52q-14 0 -14 -15v-273h80zM392 -190h-162q-15 0 -24.5 8t-9.5 22v42q0 14 3.5 22.5t10.5 19.5l48 76h-4v196h-80v-196h-111v606q0 30 19 49.5t49 19.5h165q31 0 50 -19.5t19 -49.5v-607l-74 -108h101v-81z" />
    <glyph glyph-name="Cacute" unicode="&#x106;" horiz-adv-x="403" 
d="M170 743l59 138h117l-87 -138h-89zM364 252v-176q0 -37 -21.5 -59.5t-58.5 -22.5h-140q-36 0 -58.5 22.5t-22.5 59.5v522q0 38 22.5 60.5t58.5 22.5h140q37 0 58.5 -22.5t21.5 -60.5v-173h-112v147q0 11 -7 11h-62q-7 0 -7 -11v-470q0 -10 7 -10h62q2 0 4.5 10t2.5 15
v135h112z" />
    <glyph glyph-name="cacute" unicode="&#x107;" horiz-adv-x="403" 
d="M170 743l59 138h117l-87 -138h-89zM364 252v-176q0 -37 -21.5 -59.5t-58.5 -22.5h-140q-36 0 -58.5 22.5t-22.5 59.5v522q0 38 22.5 60.5t58.5 22.5h140q37 0 58.5 -22.5t21.5 -60.5v-173h-112v147q0 11 -7 11h-62q-7 0 -7 -11v-470q0 -10 7 -10h62q2 0 4.5 10t2.5 15
v135h112z" />
    <glyph glyph-name="Cdotaccent" unicode="&#x10a;" horiz-adv-x="403" 
d="M157 881h117v-116h-117v116zM364 252v-176q0 -37 -21.5 -59.5t-58.5 -22.5h-140q-36 0 -58.5 22.5t-22.5 59.5v522q0 38 22.5 60.5t58.5 22.5h140q37 0 58.5 -22.5t21.5 -60.5v-173h-112v147q0 11 -7 11h-62q-7 0 -7 -11v-470q0 -10 7 -10h62q2 0 4.5 10t2.5 15v135h112z
" />
    <glyph glyph-name="cdotaccent" unicode="&#x10b;" horiz-adv-x="403" 
d="M157 881h117v-116h-117v116zM364 252v-176q0 -37 -21.5 -59.5t-58.5 -22.5h-140q-36 0 -58.5 22.5t-22.5 59.5v522q0 38 22.5 60.5t58.5 22.5h140q37 0 58.5 -22.5t21.5 -60.5v-173h-112v147q0 11 -7 11h-62q-7 0 -7 -11v-470q0 -10 7 -10h62q2 0 4.5 10t2.5 15v135h112z
" />
    <glyph glyph-name="Ccaron" unicode="&#x10c;" horiz-adv-x="403" 
d="M216 809l59 68h103l-124 -138h-76l-124 138h103zM364 252v-176q0 -37 -21.5 -59.5t-58.5 -22.5h-140q-36 0 -58.5 22.5t-22.5 59.5v522q0 38 22.5 60.5t58.5 22.5h140q37 0 58.5 -22.5t21.5 -60.5v-173h-112v147q0 11 -7 11h-62q-7 0 -7 -11v-470q0 -10 7 -10h62
q2 0 4.5 10t2.5 15v135h112z" />
    <glyph glyph-name="ccaron" unicode="&#x10d;" horiz-adv-x="403" 
d="M216 809l59 68h103l-124 -138h-76l-124 138h103zM364 252v-176q0 -37 -21.5 -59.5t-58.5 -22.5h-140q-36 0 -58.5 22.5t-22.5 59.5v522q0 38 22.5 60.5t58.5 22.5h140q37 0 58.5 -22.5t21.5 -60.5v-173h-112v147q0 11 -7 11h-62q-7 0 -7 -11v-470q0 -10 7 -10h62
q2 0 4.5 10t2.5 15v135h112z" />
    <glyph glyph-name="Dcaron" unicode="&#x10e;" horiz-adv-x="443" 
d="M212 809l59 68h103l-124 -138h-76l-124 138h103zM287 675q42 0 67.5 -25.5t25.5 -67.5v-489q0 -42 -25.5 -67.5t-67.5 -25.5h-218v675h218zM267 562q0 16 -16 16h-69v-481h69q16 0 16 16v449z" />
    <glyph glyph-name="dcaron" unicode="&#x10f;" horiz-adv-x="443" 
d="M212 809l59 68h103l-124 -138h-76l-124 138h103zM287 675q42 0 67.5 -25.5t25.5 -67.5v-489q0 -42 -25.5 -67.5t-67.5 -25.5h-218v675h218zM267 562q0 16 -16 16h-69v-481h69q16 0 16 16v449z" />
    <glyph glyph-name="Dcroat" unicode="&#x110;" horiz-adv-x="434" 
d="M69 0v292h-38v87h38v296h210q42 0 67.5 -25.5t25.5 -67.5v-489q0 -42 -25.5 -67.5t-67.5 -25.5h-210zM245 97q16 0 16 16v449q0 16 -16 16h-63v-199h36v-87h-36v-195h63z" />
    <glyph glyph-name="dcroat" unicode="&#x111;" horiz-adv-x="434" 
d="M69 0v292h-38v87h38v296h210q42 0 67.5 -25.5t25.5 -67.5v-489q0 -42 -25.5 -67.5t-67.5 -25.5h-210zM245 97q16 0 16 16v449q0 16 -16 16h-63v-199h36v-87h-36v-195h63z" />
    <glyph glyph-name="Emacron" unicode="&#x112;" horiz-adv-x="358" 
d="M61 865h275v-88h-275v88zM69 675h249v-97h-136v-190h111v-94h-111v-197h136v-97h-249v675z" />
    <glyph glyph-name="emacron" unicode="&#x113;" horiz-adv-x="358" 
d="M61 865h275v-88h-275v88zM69 675h249v-97h-136v-190h111v-94h-111v-197h136v-97h-249v675z" />
    <glyph glyph-name="Ebreve" unicode="&#x114;" horiz-adv-x="358" 
d="M198 814q29 0 41 16t12 44h84q0 -72 -37.5 -101.5t-99.5 -29.5q-30 0 -56 7t-45 22.5t-30 40.5t-11 61h88q0 -28 12.5 -44t41.5 -16zM69 675h249v-97h-136v-190h111v-94h-111v-197h136v-97h-249v675z" />
    <glyph glyph-name="ebreve" unicode="&#x115;" horiz-adv-x="358" 
d="M198 814q29 0 41 16t12 44h84q0 -72 -37.5 -101.5t-99.5 -29.5q-30 0 -56 7t-45 22.5t-30 40.5t-11 61h88q0 -28 12.5 -44t41.5 -16zM69 675h249v-97h-136v-190h111v-94h-111v-197h136v-97h-249v675z" />
    <glyph glyph-name="Edotaccent" unicode="&#x116;" horiz-adv-x="358" 
d="M139 881h117v-116h-117v116zM69 675h249v-97h-136v-190h111v-94h-111v-197h136v-97h-249v675z" />
    <glyph glyph-name="edotaccent" unicode="&#x117;" horiz-adv-x="358" 
d="M139 881h117v-116h-117v116zM69 675h249v-97h-136v-190h111v-94h-111v-197h136v-97h-249v675z" />
    <glyph glyph-name="Eogonek" unicode="&#x118;" horiz-adv-x="358" 
d="M345 -190h-162q-15 0 -24.5 8t-9.5 22v42q0 14 3.5 22.5t10.5 19.5l48 76h-142v675h249v-97h-136v-190h111v-94h-111v-197h136v-98l-74 -108h101v-81z" />
    <glyph glyph-name="eogonek" unicode="&#x119;" horiz-adv-x="358" 
d="M345 -190h-162q-15 0 -24.5 8t-9.5 22v42q0 14 3.5 22.5t10.5 19.5l48 76h-142v675h249v-97h-136v-190h111v-94h-111v-197h136v-98l-74 -108h101v-81z" />
    <glyph glyph-name="Ecaron" unicode="&#x11a;" horiz-adv-x="358" 
d="M198 809l59 68h103l-124 -138h-76l-124 138h103zM69 675h249v-97h-136v-190h111v-94h-111v-197h136v-97h-249v675z" />
    <glyph glyph-name="ecaron" unicode="&#x11b;" horiz-adv-x="358" 
d="M198 809l59 68h103l-124 -138h-76l-124 138h103zM69 675h249v-97h-136v-190h111v-94h-111v-197h136v-97h-249v675z" />
    <glyph glyph-name="Gcircumflex" unicode="&#x11c;" horiz-adv-x="421" 
d="M160 742h-103l124 138h76l124 -138h-103l-59 68zM144 -5q-38 0 -59.5 22.5t-21.5 59.5v521q0 38 21.5 60.5t59.5 22.5h215v-105h-176q-7 0 -7 -11v-456q0 -10 7 -10h66q8 0 8 10v208h-38v95h172v-95h-33v-240q0 -37 -22 -59.5t-60 -22.5h-132z" />
    <glyph glyph-name="gcircumflex" unicode="&#x11d;" horiz-adv-x="421" 
d="M160 742h-103l124 138h76l124 -138h-103l-59 68zM144 -5q-38 0 -59.5 22.5t-21.5 59.5v521q0 38 21.5 60.5t59.5 22.5h215v-105h-176q-7 0 -7 -11v-456q0 -10 7 -10h66q8 0 8 10v208h-38v95h172v-95h-33v-240q0 -37 -22 -59.5t-60 -22.5h-132z" />
    <glyph glyph-name="Gbreve" unicode="&#x11e;" horiz-adv-x="421" 
d="M220 814q29 0 41 16t12 44h84q0 -72 -37.5 -101.5t-99.5 -29.5q-30 0 -56 7t-45 22.5t-30 40.5t-11 61h88q0 -28 12.5 -44t41.5 -16zM144 -5q-38 0 -59.5 22.5t-21.5 59.5v521q0 38 21.5 60.5t59.5 22.5h215v-105h-176q-7 0 -7 -11v-456q0 -10 7 -10h66q8 0 8 10v208h-38
v95h172v-95h-33v-240q0 -37 -22 -59.5t-60 -22.5h-132z" />
    <glyph glyph-name="gbreve" unicode="&#x11f;" horiz-adv-x="421" 
d="M220 814q29 0 41 16t12 44h84q0 -72 -37.5 -101.5t-99.5 -29.5q-30 0 -56 7t-45 22.5t-30 40.5t-11 61h88q0 -28 12.5 -44t41.5 -16zM144 -5q-38 0 -59.5 22.5t-21.5 59.5v521q0 38 21.5 60.5t59.5 22.5h215v-105h-176q-7 0 -7 -11v-456q0 -10 7 -10h66q8 0 8 10v208h-38
v95h172v-95h-33v-240q0 -37 -22 -59.5t-60 -22.5h-132z" />
    <glyph glyph-name="Gdotaccent" unicode="&#x120;" horiz-adv-x="421" 
d="M161 881h117v-116h-117v116zM144 -5q-38 0 -59.5 22.5t-21.5 59.5v521q0 38 21.5 60.5t59.5 22.5h215v-105h-176q-7 0 -7 -11v-456q0 -10 7 -10h66q8 0 8 10v208h-38v95h172v-95h-33v-240q0 -37 -22 -59.5t-60 -22.5h-132z" />
    <glyph glyph-name="gdotaccent" unicode="&#x121;" horiz-adv-x="421" 
d="M161 881h117v-116h-117v116zM144 -5q-38 0 -59.5 22.5t-21.5 59.5v521q0 38 21.5 60.5t59.5 22.5h215v-105h-176q-7 0 -7 -11v-456q0 -10 7 -10h66q8 0 8 10v208h-38v95h172v-95h-33v-240q0 -37 -22 -59.5t-60 -22.5h-132z" />
    <glyph glyph-name="Gcommaaccent" unicode="&#x122;" horiz-adv-x="421" 
d="M144 -5q-38 0 -59.5 22.5t-21.5 59.5v521q0 38 21.5 60.5t59.5 22.5h215v-105h-176q-7 0 -7 -11v-456q0 -10 7 -10h66q8 0 8 10v208h-38v95h172v-95h-33v-240q0 -37 -22 -59.5t-60 -22.5h-132zM114 -182l48 112h95l-71 -112h-72z" />
    <glyph glyph-name="gcommaaccent" unicode="&#x123;" horiz-adv-x="421" 
d="M144 -5q-38 0 -59.5 22.5t-21.5 59.5v521q0 38 21.5 60.5t59.5 22.5h215v-105h-176q-7 0 -7 -11v-456q0 -10 7 -10h66q8 0 8 10v208h-38v95h172v-95h-33v-240q0 -37 -22 -59.5t-60 -22.5h-132zM114 -182l48 112h95l-71 -112h-72z" />
    <glyph glyph-name="Hcircumflex" unicode="&#x124;" horiz-adv-x="452" 
d="M167 742h-103l124 138h76l124 -138h-103l-59 68zM69 0v675h111v-297h92v297h111v-675h-111v285h-92v-285h-111z" />
    <glyph glyph-name="hcircumflex" unicode="&#x125;" horiz-adv-x="452" 
d="M167 742h-103l124 138h76l124 -138h-103l-59 68zM69 0v675h111v-297h92v297h111v-675h-111v285h-92v-285h-111z" />
    <glyph glyph-name="Hbar" unicode="&#x126;" horiz-adv-x="452" 
d="M272 378v111h-92v-111h92zM69 0v489h-52v88h52v98h111v-98h92v98h111v-98h52v-88h-52v-489h-111v285h-92v-285h-111z" />
    <glyph glyph-name="hbar" unicode="&#x127;" horiz-adv-x="452" 
d="M272 378v111h-92v-111h92zM69 0v489h-52v88h52v98h111v-98h92v98h111v-98h52v-88h-52v-489h-111v285h-92v-285h-111z" />
    <glyph glyph-name="Itilde" unicode="&#x128;" horiz-adv-x="245" 
d="M62 860q22 0 38 -7t28 -15l22.5 -15t22.5 -7q17 0 25 13t8 30h76q0 -60 -26.5 -90t-70.5 -30q-22 0 -38 6.5t-28.5 15t-23.5 15t-23 6.5q-17 0 -24.5 -12.5t-7.5 -29.5h-76q0 60 26.5 90t71.5 30zM176 0h-107v675h107v-675z" />
    <glyph glyph-name="itilde" unicode="&#x129;" horiz-adv-x="245" 
d="M62 860q22 0 38 -7t28 -15l22.5 -15t22.5 -7q17 0 25 13t8 30h76q0 -60 -26.5 -90t-70.5 -30q-22 0 -38 6.5t-28.5 15t-23.5 15t-23 6.5q-17 0 -24.5 -12.5t-7.5 -29.5h-76q0 60 26.5 90t71.5 30zM176 0h-107v675h107v-675z" />
    <glyph glyph-name="Imacron" unicode="&#x12a;" horiz-adv-x="245" 
d="M-15 865h275v-88h-275v88zM176 0h-107v675h107v-675z" />
    <glyph glyph-name="imacron" unicode="&#x12b;" horiz-adv-x="245" 
d="M-15 865h275v-88h-275v88zM176 0h-107v675h107v-675z" />
    <glyph glyph-name="Ibreve" unicode="&#x12c;" horiz-adv-x="245" 
d="M122 814q29 0 41 16t12 44h84q0 -72 -37.5 -101.5t-99.5 -29.5q-30 0 -56 7t-45 22.5t-30 40.5t-11 61h88q0 -28 12.5 -44t41.5 -16zM176 0h-107v675h107v-675z" />
    <glyph glyph-name="ibreve" unicode="&#x12d;" horiz-adv-x="245" 
d="M122 814q29 0 41 16t12 44h84q0 -72 -37.5 -101.5t-99.5 -29.5q-30 0 -56 7t-45 22.5t-30 40.5t-11 61h88q0 -28 12.5 -44t41.5 -16zM176 0h-107v675h107v-675z" />
    <glyph glyph-name="Iogonek" unicode="&#x12e;" horiz-adv-x="245" 
d="M203 -190h-162q-15 0 -24.5 8t-9.5 22v42q0 14 3.5 22.5t10.5 19.5l48 76v675h107v-676l-74 -108h101v-81z" />
    <glyph glyph-name="iogonek" unicode="&#x12f;" horiz-adv-x="245" 
d="M203 -190h-162q-15 0 -24.5 8t-9.5 22v42q0 14 3.5 22.5t10.5 19.5l48 76v675h107v-676l-74 -108h101v-81z" />
    <glyph glyph-name="Idotaccent" unicode="&#x130;" horiz-adv-x="245" 
d="M63 881h117v-116h-117v116zM176 0h-107v675h107v-675z" />
    <glyph glyph-name="dotlessi" unicode="&#x131;" horiz-adv-x="303" 
d="M207 0h-111v675h111v-675z" />
    <glyph glyph-name="IJ" unicode="&#x132;" horiz-adv-x="465" 
d="M178 207h-108v468h108v-468zM70 97h204q11 0 11 9v569h111v-598q0 -33 -22 -55t-54 -22h-250v97z" />
    <glyph glyph-name="ij" unicode="&#x133;" horiz-adv-x="465" 
d="M178 207h-108v468h108v-468zM70 97h204q11 0 11 9v569h111v-598q0 -33 -22 -55t-54 -22h-250v97z" />
    <glyph glyph-name="Jcircumflex" unicode="&#x134;" horiz-adv-x="391" 
d="M200 742h-103l124 138h76l124 -138h-103l-59 68zM149 324v-222q0 -4 3 -6.5t6 -2.5h42q11 0 11 9v573h111v-603q0 -33 -22 -55t-54 -22h-126q-31 0 -54 22t-23 55v252h106z" />
    <glyph glyph-name="jcircumflex" unicode="&#x135;" horiz-adv-x="391" 
d="M200 742h-103l124 138h76l124 -138h-103l-59 68zM149 324v-222q0 -4 3 -6.5t6 -2.5h42q11 0 11 9v573h111v-603q0 -33 -22 -55t-54 -22h-126q-31 0 -54 22t-23 55v252h106z" />
    <glyph glyph-name="Kcommaaccent" unicode="&#x136;" horiz-adv-x="431" 
d="M69 0v675h111v-287l114 287h112l-136 -320l140 -355h-116l-98 260l-16 -20v-240h-111zM130 -182l48 112h95l-71 -112h-72z" />
    <glyph glyph-name="kcommaaccent" unicode="&#x137;" horiz-adv-x="431" 
d="M69 0v675h111v-287l114 287h112l-136 -320l140 -355h-116l-98 260l-16 -20v-240h-111zM130 -182l48 112h95l-71 -112h-72z" />
    <glyph glyph-name="Lacute" unicode="&#x139;" horiz-adv-x="331" 
d="M78 743l59 138h117l-87 -138h-89zM69 675h112v-575h130v-100h-242v675z" />
    <glyph glyph-name="lacute" unicode="&#x13a;" horiz-adv-x="331" 
d="M78 743l59 138h117l-87 -138h-89zM69 675h112v-575h130v-100h-242v675z" />
    <glyph glyph-name="Lcommaaccent" unicode="&#x13b;" horiz-adv-x="331" 
d="M69 675h112v-575h130v-100h-242v675zM88 -182l48 112h95l-71 -112h-72z" />
    <glyph glyph-name="lcommaaccent" unicode="&#x13c;" horiz-adv-x="331" 
d="M69 675h112v-575h130v-100h-242v675zM88 -182l48 112h95l-71 -112h-72z" />
    <glyph glyph-name="Lcaron" unicode="&#x13d;" horiz-adv-x="331" 
d="M124 809l59 68h103l-124 -138h-76l-124 138h103zM69 675h112v-575h130v-100h-242v675z" />
    <glyph glyph-name="lcaron" unicode="&#x13e;" horiz-adv-x="331" 
d="M124 809l59 68h103l-124 -138h-76l-124 138h103zM69 675h112v-575h130v-100h-242v675z" />
    <glyph glyph-name="Ldot" unicode="&#x13f;" horiz-adv-x="329" 
d="M78 881h117v-116h-117v116zM69 675h112v-575h130v-100h-242v675z" />
    <glyph glyph-name="Lslash" unicode="&#x141;" horiz-adv-x="329" 
d="M69 0v208l-55 -45l-45 56l100 83v373h112v-280l110 91l45 -57l-155 -128v-201h130v-100h-242z" />
    <glyph glyph-name="lslash" unicode="&#x142;" horiz-adv-x="329" 
d="M69 0v208l-55 -45l-45 56l100 83v373h112v-280l110 91l45 -57l-155 -128v-201h130v-100h-242z" />
    <glyph glyph-name="Nacute" unicode="&#x143;" horiz-adv-x="455" 
d="M185 743l59 138h117l-87 -138h-89zM164 380v-380h-95v675h94l128 -406v406h95v-675h-93z" />
    <glyph glyph-name="nacute" unicode="&#x144;" horiz-adv-x="455" 
d="M185 743l59 138h117l-87 -138h-89zM164 380v-380h-95v675h94l128 -406v406h95v-675h-93z" />
    <glyph glyph-name="Ncommaaccent" unicode="&#x145;" horiz-adv-x="455" 
d="M164 380v-380h-95v675h94l128 -406v406h95v-675h-93zM131 -182l48 112h95l-71 -112h-72z" />
    <glyph glyph-name="ncommaaccent" unicode="&#x146;" horiz-adv-x="455" 
d="M164 380v-380h-95v675h94l128 -406v406h95v-675h-93zM131 -182l48 112h95l-71 -112h-72z" />
    <glyph glyph-name="Ncaron" unicode="&#x147;" horiz-adv-x="455" 
d="M231 809l59 68h103l-124 -138h-76l-124 138h103zM164 380v-380h-95v675h94l128 -406v406h95v-675h-93z" />
    <glyph glyph-name="ncaron" unicode="&#x148;" horiz-adv-x="455" 
d="M231 809l59 68h103l-124 -138h-76l-124 138h103zM164 380v-380h-95v675h94l128 -406v406h95v-675h-93z" />
    <glyph glyph-name="Eng" unicode="&#x14a;" horiz-adv-x="455" 
d="M386 -87q0 -33 -22 -55t-54 -22h-111v98h81q11 0 11 9v127l-127 326v-396h-95v675h94l128 -342v342h95v-762z" />
    <glyph glyph-name="eng" unicode="&#x14b;" horiz-adv-x="455" 
d="M386 -87q0 -33 -22 -55t-54 -22h-111v98h81q11 0 11 9v127l-127 326v-396h-95v675h94l128 -342v342h95v-762z" />
    <glyph glyph-name="Omacron" unicode="&#x14c;" horiz-adv-x="437" 
d="M83 865h275v-88h-275v88zM305 681q30 0 49.5 -19.5t19.5 -49.5v-548q0 -30 -19.5 -49.5t-49.5 -19.5h-173q-31 0 -50 19.5t-19 49.5v548q0 30 19 49.5t50 19.5h173zM261 576q0 5 -2 8t-4 3h-74q-4 0 -4.5 -4t-0.5 -7v-475q0 -2 1 -5.5t4 -3.5h74q2 0 4 2.5t2 6.5v475z
" />
    <glyph glyph-name="omacron" unicode="&#x14d;" horiz-adv-x="437" 
d="M83 865h275v-88h-275v88zM305 681q30 0 49.5 -19.5t19.5 -49.5v-548q0 -30 -19.5 -49.5t-49.5 -19.5h-173q-31 0 -50 19.5t-19 49.5v548q0 30 19 49.5t50 19.5h173zM261 576q0 5 -2 8t-4 3h-74q-4 0 -4.5 -4t-0.5 -7v-475q0 -2 1 -5.5t4 -3.5h74q2 0 4 2.5t2 6.5v475z
" />
    <glyph glyph-name="Obreve" unicode="&#x14e;" horiz-adv-x="437" 
d="M220 814q29 0 41 16t12 44h84q0 -72 -37.5 -101.5t-99.5 -29.5q-30 0 -56 7t-45 22.5t-30 40.5t-11 61h88q0 -28 12.5 -44t41.5 -16zM305 681q30 0 49.5 -19.5t19.5 -49.5v-548q0 -30 -19.5 -49.5t-49.5 -19.5h-173q-31 0 -50 19.5t-19 49.5v548q0 30 19 49.5t50 19.5
h173zM261 576q0 5 -2 8t-4 3h-74q-4 0 -4.5 -4t-0.5 -7v-475q0 -2 1 -5.5t4 -3.5h74q2 0 4 2.5t2 6.5v475z" />
    <glyph glyph-name="obreve" unicode="&#x14f;" horiz-adv-x="437" 
d="M220 814q29 0 41 16t12 44h84q0 -72 -37.5 -101.5t-99.5 -29.5q-30 0 -56 7t-45 22.5t-30 40.5t-11 61h88q0 -28 12.5 -44t41.5 -16zM305 681q30 0 49.5 -19.5t19.5 -49.5v-548q0 -30 -19.5 -49.5t-49.5 -19.5h-173q-31 0 -50 19.5t-19 49.5v548q0 30 19 49.5t50 19.5
h173zM261 576q0 5 -2 8t-4 3h-74q-4 0 -4.5 -4t-0.5 -7v-475q0 -2 1 -5.5t4 -3.5h74q2 0 4 2.5t2 6.5v475z" />
    <glyph glyph-name="Ohungarumlaut" unicode="&#x150;" horiz-adv-x="437" 
d="M240 743l59 138h117l-87 -138h-89zM86 743l59 138h117l-87 -138h-89zM305 681q30 0 49.5 -19.5t19.5 -49.5v-548q0 -30 -19.5 -49.5t-49.5 -19.5h-173q-31 0 -50 19.5t-19 49.5v548q0 30 19 49.5t50 19.5h173zM261 576q0 5 -2 8t-4 3h-74q-4 0 -4.5 -4t-0.5 -7v-475
q0 -2 1 -5.5t4 -3.5h74q2 0 4 2.5t2 6.5v475z" />
    <glyph glyph-name="ohungarumlaut" unicode="&#x151;" horiz-adv-x="437" 
d="M240 743l59 138h117l-87 -138h-89zM86 743l59 138h117l-87 -138h-89zM305 681q30 0 49.5 -19.5t19.5 -49.5v-548q0 -30 -19.5 -49.5t-49.5 -19.5h-173q-31 0 -50 19.5t-19 49.5v548q0 30 19 49.5t50 19.5h173zM261 576q0 5 -2 8t-4 3h-74q-4 0 -4.5 -4t-0.5 -7v-475
q0 -2 1 -5.5t4 -3.5h74q2 0 4 2.5t2 6.5v475z" />
    <glyph glyph-name="OE" unicode="&#x152;" horiz-adv-x="548" 
d="M132 0q-31 0 -50 19.5t-19 49.5v537q0 30 19 49.5t50 19.5h376v-97h-133v-190h108v-94h-108v-197h133v-97h-376zM262 97v484h-81q-4 0 -4.5 -4t-0.5 -7v-464q0 -2 1 -5.5t4 -3.5h81z" />
    <glyph glyph-name="oe" unicode="&#x153;" horiz-adv-x="548" 
d="M132 0q-31 0 -50 19.5t-19 49.5v537q0 30 19 49.5t50 19.5h376v-97h-133v-190h108v-94h-108v-197h133v-97h-376zM262 97v484h-81q-4 0 -4.5 -4t-0.5 -7v-464q0 -2 1 -5.5t4 -3.5h81z" />
    <glyph glyph-name="Racute" unicode="&#x154;" horiz-adv-x="431" 
d="M174 743l59 138h117l-87 -138h-89zM267 568q0 10 -7 10h-78v-260h78q2 0 4.5 3t2.5 6v241zM220 225h-38v-225h-113v675h227q38 0 59.5 -22.5t21.5 -60.5v-284q0 -29 -13.5 -49.5t-36.5 -28.5l51 -230h-111z" />
    <glyph glyph-name="racute" unicode="&#x155;" horiz-adv-x="431" 
d="M174 743l59 138h117l-87 -138h-89zM267 568q0 10 -7 10h-78v-260h78q2 0 4.5 3t2.5 6v241zM220 225h-38v-225h-113v675h227q38 0 59.5 -22.5t21.5 -60.5v-284q0 -29 -13.5 -49.5t-36.5 -28.5l51 -230h-111z" />
    <glyph glyph-name="Rcommaaccent" unicode="&#x156;" horiz-adv-x="431" 
d="M267 568q0 10 -7 10h-78v-260h78q2 0 4.5 3t2.5 6v241zM220 225h-38v-225h-113v675h227q38 0 59.5 -22.5t21.5 -60.5v-284q0 -29 -13.5 -49.5t-36.5 -28.5l51 -230h-111zM130 -182l48 112h95l-71 -112h-72z" />
    <glyph glyph-name="rcommaaccent" unicode="&#x157;" horiz-adv-x="431" 
d="M267 568q0 10 -7 10h-78v-260h78q2 0 4.5 3t2.5 6v241zM220 225h-38v-225h-113v675h227q38 0 59.5 -22.5t21.5 -60.5v-284q0 -29 -13.5 -49.5t-36.5 -28.5l51 -230h-111zM130 -182l48 112h95l-71 -112h-72z" />
    <glyph glyph-name="Rcaron" unicode="&#x158;" horiz-adv-x="431" 
d="M220 809l59 68h103l-124 -138h-76l-124 138h103zM267 568q0 10 -7 10h-78v-260h78q2 0 4.5 3t2.5 6v241zM220 225h-38v-225h-113v675h227q38 0 59.5 -22.5t21.5 -60.5v-284q0 -29 -13.5 -49.5t-36.5 -28.5l51 -230h-111z" />
    <glyph glyph-name="rcaron" unicode="&#x159;" horiz-adv-x="431" 
d="M220 809l59 68h103l-124 -138h-76l-124 138h103zM267 568q0 10 -7 10h-78v-260h78q2 0 4.5 3t2.5 6v241zM220 225h-38v-225h-113v675h227q38 0 59.5 -22.5t21.5 -60.5v-284q0 -29 -13.5 -49.5t-36.5 -28.5l51 -230h-111z" />
    <glyph glyph-name="Sacute" unicode="&#x15a;" horiz-adv-x="334" 
d="M121 743l59 138h117l-87 -138h-89zM43 101h131q8 0 8 9v169q0 9 -8 9h-63q-30 0 -49 19.5t-19 49.5v249q0 30 19 49.5t49 19.5h177v-97h-127q-7 0 -7 -11v-165q0 -3 2 -6t5 -3h64q30 0 49.5 -19.5t19.5 -49.5v-255q0 -30 -19.5 -49.5t-49.5 -19.5h-182v101z" />
    <glyph glyph-name="sacute" unicode="&#x15b;" horiz-adv-x="334" 
d="M121 743l59 138h117l-87 -138h-89zM43 101h131q8 0 8 9v169q0 9 -8 9h-63q-30 0 -49 19.5t-19 49.5v249q0 30 19 49.5t49 19.5h177v-97h-127q-7 0 -7 -11v-165q0 -3 2 -6t5 -3h64q30 0 49.5 -19.5t19.5 -49.5v-255q0 -30 -19.5 -49.5t-49.5 -19.5h-182v101z" />
    <glyph glyph-name="Scircumflex" unicode="&#x15c;" horiz-adv-x="334" 
d="M107 742h-103l124 138h76l124 -138h-103l-59 68zM43 101h131q8 0 8 9v169q0 9 -8 9h-63q-30 0 -49 19.5t-19 49.5v249q0 30 19 49.5t49 19.5h177v-97h-127q-7 0 -7 -11v-165q0 -3 2 -6t5 -3h64q30 0 49.5 -19.5t19.5 -49.5v-255q0 -30 -19.5 -49.5t-49.5 -19.5h-182v101z
" />
    <glyph glyph-name="scircumflex" unicode="&#x15d;" horiz-adv-x="334" 
d="M107 742h-103l124 138h76l124 -138h-103l-59 68zM43 101h131q8 0 8 9v169q0 9 -8 9h-63q-30 0 -49 19.5t-19 49.5v249q0 30 19 49.5t49 19.5h177v-97h-127q-7 0 -7 -11v-165q0 -3 2 -6t5 -3h64q30 0 49.5 -19.5t19.5 -49.5v-255q0 -30 -19.5 -49.5t-49.5 -19.5h-182v101z
" />
    <glyph glyph-name="Scedilla" unicode="&#x15e;" horiz-adv-x="334" 
d="M43 101h131q8 0 8 9v169q0 9 -8 9h-63q-30 0 -49 19.5t-19 49.5v249q0 30 19 49.5t49 19.5h177v-97h-127q-7 0 -7 -11v-165q0 -3 2 -6t5 -3h64q30 0 49.5 -19.5t19.5 -49.5v-255q0 -30 -19.5 -49.5t-49.5 -19.5h-62l-9 -50h104q14 0 21 -8t5 -22l-18 -109q-2 -15 -12 -24
t-24 -9h-166l12 65h124q4 0 5 4l6 37q0 4 -3 4h-126l18 112h-57v101z" />
    <glyph glyph-name="scedilla" unicode="&#x15f;" horiz-adv-x="334" 
d="M43 101h131q8 0 8 9v169q0 9 -8 9h-63q-30 0 -49 19.5t-19 49.5v249q0 30 19 49.5t49 19.5h177v-97h-127q-7 0 -7 -11v-165q0 -3 2 -6t5 -3h64q30 0 49.5 -19.5t19.5 -49.5v-255q0 -30 -19.5 -49.5t-49.5 -19.5h-62l-9 -50h104q14 0 21 -8t5 -22l-18 -109q-2 -15 -12 -24
t-24 -9h-166l12 65h124q4 0 5 4l6 37q0 4 -3 4h-126l18 112h-57v101z" />
    <glyph glyph-name="Scaron" unicode="&#x160;" horiz-adv-x="334" 
d="M167 809l59 68h103l-124 -138h-76l-124 138h103zM43 101h131q8 0 8 9v169q0 9 -8 9h-63q-30 0 -49 19.5t-19 49.5v249q0 30 19 49.5t49 19.5h177v-97h-127q-7 0 -7 -11v-165q0 -3 2 -6t5 -3h64q30 0 49.5 -19.5t19.5 -49.5v-255q0 -30 -19.5 -49.5t-49.5 -19.5h-182v101z
" />
    <glyph glyph-name="scaron" unicode="&#x161;" horiz-adv-x="334" 
d="M167 809l59 68h103l-124 -138h-76l-124 138h103zM43 101h131q8 0 8 9v169q0 9 -8 9h-63q-30 0 -49 19.5t-19 49.5v249q0 30 19 49.5t49 19.5h177v-97h-127q-7 0 -7 -11v-165q0 -3 2 -6t5 -3h64q30 0 49.5 -19.5t19.5 -49.5v-255q0 -30 -19.5 -49.5t-49.5 -19.5h-182v101z
" />
    <glyph glyph-name="Tcommaaccent" unicode="&#x162;" horiz-adv-x="314" 
d="M213 578v-578h-112v578h-85v97h282v-97h-85zM61 -182l48 112h95l-71 -112h-72z" />
    <glyph glyph-name="Tcommaaccent" unicode="&#x21a;" horiz-adv-x="314" 
d="M213 578v-578h-112v578h-85v97h282v-97h-85zM61 -182l48 112h95l-71 -112h-72z" />
    <glyph glyph-name="tcommaaccent" unicode="&#x163;" horiz-adv-x="314" 
d="M213 578v-578h-112v578h-85v97h282v-97h-85zM61 -182l48 112h95l-71 -112h-72z" />
    <glyph glyph-name="tcommaaccent" unicode="&#x21b;" horiz-adv-x="314" 
d="M213 578v-578h-112v578h-85v97h282v-97h-85zM61 -182l48 112h95l-71 -112h-72z" />
    <glyph glyph-name="Tcaron" unicode="&#x164;" horiz-adv-x="314" 
d="M156 809l59 68h103l-124 -138h-76l-124 138h103zM213 578v-578h-112v578h-85v97h282v-97h-85z" />
    <glyph glyph-name="tcaron" unicode="&#x165;" horiz-adv-x="314" 
d="M156 809l59 68h103l-124 -138h-76l-124 138h103zM213 578v-578h-112v578h-85v97h282v-97h-85z" />
    <glyph glyph-name="Tbar" unicode="&#x166;" horiz-adv-x="391" 
d="M266 243v-243h-112v243h-74v118h74v217h-85v97h282v-97h-85v-217h74v-118h-74z" />
    <glyph glyph-name="Utilde" unicode="&#x168;" 
d="M161 860q22 0 38 -7t28 -15l22.5 -15t22.5 -7q17 0 25 13t8 30h76q0 -60 -26.5 -90t-70.5 -30q-22 0 -38 6.5t-28.5 15t-23.5 15t-23 6.5q-17 0 -24.5 -12.5t-7.5 -29.5h-76q0 60 26.5 90t71.5 30zM182 675v-572q0 -4 2 -6.5t4 -2.5h68q2 0 4 2.5t2 6.5v572h114v-593
q0 -37 -22.5 -59.5t-60.5 -22.5h-142q-38 0 -60 22.5t-22 59.5v593h113z" />
    <glyph glyph-name="utilde" unicode="&#x169;" 
d="M161 860q22 0 38 -7t28 -15l22.5 -15t22.5 -7q17 0 25 13t8 30h76q0 -60 -26.5 -90t-70.5 -30q-22 0 -38 6.5t-28.5 15t-23.5 15t-23 6.5q-17 0 -24.5 -12.5t-7.5 -29.5h-76q0 60 26.5 90t71.5 30zM182 675v-572q0 -4 2 -6.5t4 -2.5h68q2 0 4 2.5t2 6.5v572h114v-593
q0 -37 -22.5 -59.5t-60.5 -22.5h-142q-38 0 -60 22.5t-22 59.5v593h113z" />
    <glyph glyph-name="Umacron" unicode="&#x16a;" 
d="M84 865h275v-88h-275v88zM182 675v-572q0 -4 2 -6.5t4 -2.5h68q2 0 4 2.5t2 6.5v572h114v-593q0 -37 -22.5 -59.5t-60.5 -22.5h-142q-38 0 -60 22.5t-22 59.5v593h113z" />
    <glyph glyph-name="umacron" unicode="&#x16b;" 
d="M84 865h275v-88h-275v88zM182 675v-572q0 -4 2 -6.5t4 -2.5h68q2 0 4 2.5t2 6.5v572h114v-593q0 -37 -22.5 -59.5t-60.5 -22.5h-142q-38 0 -60 22.5t-22 59.5v593h113z" />
    <glyph glyph-name="Ubreve" unicode="&#x16c;" 
d="M221 814q29 0 41 16t12 44h84q0 -72 -37.5 -101.5t-99.5 -29.5q-30 0 -56 7t-45 22.5t-30 40.5t-11 61h88q0 -28 12.5 -44t41.5 -16zM182 675v-572q0 -4 2 -6.5t4 -2.5h68q2 0 4 2.5t2 6.5v572h114v-593q0 -37 -22.5 -59.5t-60.5 -22.5h-142q-38 0 -60 22.5t-22 59.5v593
h113z" />
    <glyph glyph-name="ubreve" unicode="&#x16d;" 
d="M221 814q29 0 41 16t12 44h84q0 -72 -37.5 -101.5t-99.5 -29.5q-30 0 -56 7t-45 22.5t-30 40.5t-11 61h88q0 -28 12.5 -44t41.5 -16zM182 675v-572q0 -4 2 -6.5t4 -2.5h68q2 0 4 2.5t2 6.5v572h114v-593q0 -37 -22.5 -59.5t-60.5 -22.5h-142q-38 0 -60 22.5t-22 59.5v593
h113z" />
    <glyph glyph-name="Uring" unicode="&#x16e;" 
d="M320 833q0 -39 -28 -67.5t-71 -28.5q-19 0 -37 7.5t-31.5 21t-21.5 31t-8 36.5q0 20 8 37.5t21.5 30t31.5 20t37 7.5q43 0 71 -27.5t28 -67.5zM181 833q0 -18 10.5 -29t29.5 -11q18 0 30 11t12 29q0 22 -12 32t-30 10q-40 0 -40 -42zM182 675v-572q0 -4 2 -6.5t4 -2.5h68
q2 0 4 2.5t2 6.5v572h114v-593q0 -37 -22.5 -59.5t-60.5 -22.5h-142q-38 0 -60 22.5t-22 59.5v593h113z" />
    <glyph glyph-name="uring" unicode="&#x16f;" 
d="M320 833q0 -39 -28 -67.5t-71 -28.5q-19 0 -37 7.5t-31.5 21t-21.5 31t-8 36.5q0 20 8 37.5t21.5 30t31.5 20t37 7.5q43 0 71 -27.5t28 -67.5zM181 833q0 -18 10.5 -29t29.5 -11q18 0 30 11t12 29q0 22 -12 32t-30 10q-40 0 -40 -42zM182 675v-572q0 -4 2 -6.5t4 -2.5h68
q2 0 4 2.5t2 6.5v572h114v-593q0 -37 -22.5 -59.5t-60.5 -22.5h-142q-38 0 -60 22.5t-22 59.5v593h113z" />
    <glyph glyph-name="Uhungarumlaut" unicode="&#x170;" 
d="M241 743l59 138h117l-87 -138h-89zM87 743l59 138h117l-87 -138h-89zM182 675v-572q0 -4 2 -6.5t4 -2.5h68q2 0 4 2.5t2 6.5v572h114v-593q0 -37 -22.5 -59.5t-60.5 -22.5h-142q-38 0 -60 22.5t-22 59.5v593h113z" />
    <glyph glyph-name="uhungarumlaut" unicode="&#x171;" 
d="M241 743l59 138h117l-87 -138h-89zM87 743l59 138h117l-87 -138h-89zM182 675v-572q0 -4 2 -6.5t4 -2.5h68q2 0 4 2.5t2 6.5v572h114v-593q0 -37 -22.5 -59.5t-60.5 -22.5h-142q-38 0 -60 22.5t-22 59.5v593h113z" />
    <glyph glyph-name="Uogonek" unicode="&#x172;" 
d="M296 -190h-162q-15 0 -24.5 8t-9.5 22v42q0 14 3.5 22.5t10.5 19.5l48 76h-11q-38 0 -60 22.5t-22 59.5v593h113v-572q0 -4 2 -6.5t4 -2.5h68q2 0 4 2.5t2 6.5v572h114v-593q0 -37 -22.5 -59.5t-60.5 -22.5h-24v-1l-74 -108h101v-81z" />
    <glyph glyph-name="uogonek" unicode="&#x173;" 
d="M296 -190h-162q-15 0 -24.5 8t-9.5 22v42q0 14 3.5 22.5t10.5 19.5l48 76h-11q-38 0 -60 22.5t-22 59.5v593h113v-572q0 -4 2 -6.5t4 -2.5h68q2 0 4 2.5t2 6.5v572h114v-593q0 -37 -22.5 -59.5t-60.5 -22.5h-24v-1l-74 -108h101v-81z" />
    <glyph glyph-name="Wcircumflex" unicode="&#x174;" horiz-adv-x="558" 
d="M216 742h-103l124 138h76l124 -138h-103l-59 68zM215 0h-95l-88 675h106l41 -437l54 437h94l57 -440l42 440h100l-87 -675h-94l-65 449z" />
    <glyph glyph-name="wcircumflex" unicode="&#x175;" horiz-adv-x="558" 
d="M216 742h-103l124 138h76l124 -138h-103l-59 68zM215 0h-95l-88 675h106l41 -437l54 437h94l57 -440l42 440h100l-87 -675h-94l-65 449z" />
    <glyph glyph-name="Ycircumflex" unicode="&#x176;" horiz-adv-x="405" 
d="M145 742h-103l124 138h76l124 -138h-103l-59 68zM258 208v-208h-111v208h-16q-38 0 -60 21.5t-22 58.5v387h112v-360q0 -4 3 -7t5 -3h71q4 0 4 10v360h112v-387q0 -37 -22.5 -58.5t-60.5 -21.5h-15z" />
    <glyph glyph-name="ycircumflex" unicode="&#x177;" horiz-adv-x="405" 
d="M145 742h-103l124 138h76l124 -138h-103l-59 68zM258 208v-208h-111v208h-16q-38 0 -60 21.5t-22 58.5v387h112v-360q0 -4 3 -7t5 -3h71q4 0 4 10v360h112v-387q0 -37 -22.5 -58.5t-60.5 -21.5h-15z" />
    <glyph glyph-name="Ydieresis" unicode="&#x178;" horiz-adv-x="405" 
d="M241 875h113v-110h-113v110zM61 875h113v-110h-113v110zM258 208v-208h-111v208h-16q-38 0 -60 21.5t-22 58.5v387h112v-360q0 -4 3 -7t5 -3h71q4 0 4 10v360h112v-387q0 -37 -22.5 -58.5t-60.5 -21.5h-15z" />
    <glyph glyph-name="Zacute" unicode="&#x179;" horiz-adv-x="339" 
d="M121 743l59 138h117l-87 -138h-89zM31 0v87l159 494h-147v94h258v-87l-156 -494h163v-94h-277z" />
    <glyph glyph-name="zacute" unicode="&#x17a;" horiz-adv-x="339" 
d="M121 743l59 138h117l-87 -138h-89zM31 0v87l159 494h-147v94h258v-87l-156 -494h163v-94h-277z" />
    <glyph glyph-name="Zdotaccent" unicode="&#x17b;" horiz-adv-x="339" 
d="M108 881h117v-116h-117v116zM31 0v87l159 494h-147v94h258v-87l-156 -494h163v-94h-277z" />
    <glyph glyph-name="zdotaccent" unicode="&#x17c;" horiz-adv-x="339" 
d="M108 881h117v-116h-117v116zM31 0v87l159 494h-147v94h258v-87l-156 -494h163v-94h-277z" />
    <glyph glyph-name="Zcaron" unicode="&#x17d;" horiz-adv-x="339" 
d="M167 809l59 68h103l-124 -138h-76l-124 138h103zM31 0v87l159 494h-147v94h258v-87l-156 -494h163v-94h-277z" />
    <glyph glyph-name="zcaron" unicode="&#x17e;" horiz-adv-x="339" 
d="M167 809l59 68h103l-124 -138h-76l-124 138h103zM31 0v87l159 494h-147v94h258v-87l-156 -494h163v-94h-277z" />
    <glyph glyph-name="Ucaron" unicode="&#x1d3;" 
d="M221 809l59 68h103l-124 -138h-76l-124 138h103zM182 675v-572q0 -4 2 -6.5t4 -2.5h68q2 0 4 2.5t2 6.5v572h114v-593q0 -37 -22.5 -59.5t-60.5 -22.5h-142q-38 0 -60 22.5t-22 59.5v593h113z" />
    <glyph glyph-name="ucaron" unicode="&#x1d4;" 
d="M221 809l59 68h103l-124 -138h-76l-124 138h103zM182 675v-572q0 -4 2 -6.5t4 -2.5h68q2 0 4 2.5t2 6.5v572h114v-593q0 -37 -22.5 -59.5t-60.5 -22.5h-142q-38 0 -60 22.5t-22 59.5v593h113z" />
    <glyph glyph-name="AEmacron" unicode="&#x1e2;" horiz-adv-x="570" 
d="M170 865h275v-88h-275v88zM264 289v288h-76q-14 0 -14 -15v-273h90zM264 0v196h-90v-196h-111v606q0 30 19 49.5t49 19.5h399v-97h-154v-190h129v-94h-129v-197h154v-97h-266z" />
    <glyph glyph-name="aemacron" unicode="&#x1e3;" horiz-adv-x="570" 
d="M170 865h275v-88h-275v88zM264 289v288h-76q-14 0 -14 -15v-273h90zM264 0v196h-90v-196h-111v606q0 30 19 49.5t49 19.5h399v-97h-154v-190h129v-94h-129v-197h154v-97h-266z" />
    <glyph glyph-name="AEacute" unicode="&#x1fc;" horiz-adv-x="570" 
d="M261 743l59 138h117l-87 -138h-89zM264 289v288h-76q-14 0 -14 -15v-273h90zM264 0v196h-90v-196h-111v606q0 30 19 49.5t49 19.5h399v-97h-154v-190h129v-94h-129v-197h154v-97h-266z" />
    <glyph glyph-name="aeacute" unicode="&#x1fd;" horiz-adv-x="570" 
d="M261 743l59 138h117l-87 -138h-89zM264 289v288h-76q-14 0 -14 -15v-273h90zM264 0v196h-90v-196h-111v606q0 30 19 49.5t49 19.5h399v-97h-154v-190h129v-94h-129v-197h154v-97h-266z" />
    <glyph glyph-name="Oslashacute" unicode="&#x1fe;" horiz-adv-x="437" 
d="M172 743l59 138h117l-87 -138h-89zM151 116l92 471h-77q-4 0 -4.5 -4t-0.5 -7zM286 576q0 2 -0.5 3t-0.5 3l-95 -490h80q2 0 4 2.5t2 6.5zM165 -5l-23 -68h-44l23 69q-26 3 -42 22t-16 46v548q0 30 19 49.5t50 19.5h140l19 65h44l-22 -65q27 -3 44 -22t17 -47v-548
q0 -30 -19.5 -49.5t-49.5 -19.5h-140z" />
    <glyph glyph-name="oslashacute" unicode="&#x1ff;" horiz-adv-x="437" 
d="M172 743l59 138h117l-87 -138h-89zM151 116l92 471h-77q-4 0 -4.5 -4t-0.5 -7zM286 576q0 2 -0.5 3t-0.5 3l-95 -490h80q2 0 4 2.5t2 6.5zM165 -5l-23 -68h-44l23 69q-26 3 -42 22t-16 46v548q0 30 19 49.5t50 19.5h140l19 65h44l-22 -65q27 -3 44 -22t17 -47v-548
q0 -30 -19.5 -49.5t-49.5 -19.5h-140z" />
    <glyph glyph-name="Scommaaccent" unicode="&#x218;" horiz-adv-x="334" 
d="M43 101h131q8 0 8 9v169q0 9 -8 9h-63q-30 0 -49 19.5t-19 49.5v249q0 30 19 49.5t49 19.5h177v-97h-127q-7 0 -7 -11v-165q0 -3 2 -6t5 -3h64q30 0 49.5 -19.5t19.5 -49.5v-255q0 -30 -19.5 -49.5t-49.5 -19.5h-182v101zM58 -182l48 112h95l-71 -112h-72z" />
    <glyph glyph-name="scommaaccent" unicode="&#x219;" horiz-adv-x="334" 
d="M43 101h131q8 0 8 9v169q0 9 -8 9h-63q-30 0 -49 19.5t-19 49.5v249q0 30 19 49.5t49 19.5h177v-97h-127q-7 0 -7 -11v-165q0 -3 2 -6t5 -3h64q30 0 49.5 -19.5t19.5 -49.5v-255q0 -30 -19.5 -49.5t-49.5 -19.5h-182v101zM58 -182l48 112h95l-71 -112h-72z" />
    <glyph glyph-name="Ymacron" unicode="&#x232;" horiz-adv-x="405" 
d="M68 865h275v-88h-275v88zM258 208v-208h-111v208h-16q-38 0 -60 21.5t-22 58.5v387h112v-360q0 -4 3 -7t5 -3h71q4 0 4 10v360h112v-387q0 -37 -22.5 -58.5t-60.5 -21.5h-15z" />
    <glyph glyph-name="ymacron" unicode="&#x233;" horiz-adv-x="405" 
d="M68 865h275v-88h-275v88zM258 208v-208h-111v208h-16q-38 0 -60 21.5t-22 58.5v387h112v-360q0 -4 3 -7t5 -3h71q4 0 4 10v360h112v-387q0 -37 -22.5 -58.5t-60.5 -21.5h-15z" />
    <glyph glyph-name="Bstroke" unicode="&#x243;" horiz-adv-x="420" 
d="M267 519q0 16 -16 16h-69v-136h69q16 0 16 16v104zM267 289q0 16 -16 16h-69v-145h69q16 0 16 15v114zM260 60v-108h-86v108h-105v575h105v98h86v-98h53q30 0 49 -19t19 -49v-139q0 -40 -20 -57.5t-51 -21.5q31 -5 50 -23.5t19 -53.5v-144q0 -30 -19 -49t-48 -19h-52z
" />
    <glyph glyph-name="circumflex" unicode="&#x2c6;" horiz-adv-x="349" 
d="M103 742h-103l124 138h76l124 -138h-103l-59 68z" />
    <glyph glyph-name="caron" unicode="&#x2c7;" horiz-adv-x="313" 
d="M162 809l59 68h103l-124 -138h-76l-124 138h103z" />
    <glyph glyph-name="breve" unicode="&#x2d8;" horiz-adv-x="330" 
d="M142 814q29 0 41 16t12 44h84q0 -72 -37.5 -101.5t-99.5 -29.5q-30 0 -56 7t-45 22.5t-30 40.5t-11 61h88q0 -28 12.5 -44t41.5 -16z" />
    <glyph glyph-name="ring" unicode="&#x2da;" horiz-adv-x="233" 
d="M197 833q0 -39 -28 -67.5t-71 -28.5q-19 0 -37 7.5t-31.5 21t-21.5 31t-8 36.5q0 20 8 37.5t21.5 30t31.5 20t37 7.5q43 0 71 -27.5t28 -67.5zM58 833q0 -18 10.5 -29t29.5 -11q18 0 30 11t12 29q0 22 -12 32t-30 10q-40 0 -40 -42z" />
    <glyph glyph-name="ogonek" unicode="&#x2db;" horiz-adv-x="247" 
d="M34 -190q-15 0 -24.5 8t-9.5 22v42q0 14 3.5 22.5t10.5 19.5l71 112l84 -24v-13l-74 -108h101v-81h-162z" />
    <glyph glyph-name="tilde" unicode="&#x2dc;" horiz-adv-x="347" 
d="M98 860q22 0 38 -7t28 -15l22.5 -15t22.5 -7q17 0 25 13t8 30h76q0 -60 -26.5 -90t-70.5 -30q-22 0 -38 6.5t-28.5 15t-23.5 15t-23 6.5q-17 0 -24.5 -12.5t-7.5 -29.5h-76q0 60 26.5 90t71.5 30z" />
    <glyph glyph-name="hungarumlaut" unicode="&#x2dd;" horiz-adv-x="390" 
d="M207 743l59 138h117l-87 -138h-89zM0 743l59 138h117l-87 -138h-89z" />
    <glyph glyph-name="gravecomb" unicode="&#x300;" horiz-adv-x="176" 
d="M0 881h118l58 -138h-89z" />
    <glyph glyph-name="acutecomb" unicode="&#x301;" horiz-adv-x="176" 
d="M0 743l59 138h117l-87 -138h-89z" />
    <glyph glyph-name="circumflexcomb" unicode="&#x302;" horiz-adv-x="324" 
d="M103 742h-103l124 138h76l124 -138h-103l-59 68z" />
    <glyph glyph-name="tildecomb" unicode="&#x303;" horiz-adv-x="318" 
d="M98 860q22 0 38 -7t28 -15l22.5 -15t22.5 -7q17 0 25 13t8 30h76q0 -60 -26.5 -90t-70.5 -30q-22 0 -38 6.5t-28.5 15t-23.5 15t-23 6.5q-17 0 -24.5 -12.5t-7.5 -29.5h-76q0 60 26.5 90t71.5 30z" />
    <glyph glyph-name="macroncomb" unicode="&#x304;" horiz-adv-x="275" 
d="M0 865h275v-88h-275v88z" />
    <glyph glyph-name="brevecomb" unicode="&#x306;" horiz-adv-x="279" 
d="M142 814q29 0 41 16t12 44h84q0 -72 -37.5 -101.5t-99.5 -29.5q-30 0 -56 7t-45 22.5t-30 40.5t-11 61h88q0 -28 12.5 -44t41.5 -16z" />
    <glyph glyph-name="dotaccentcomb" unicode="&#x307;" horiz-adv-x="117" 
d="M0 881h117v-116h-117v116z" />
    <glyph glyph-name="dieresiscomb" unicode="&#x308;" horiz-adv-x="293" 
d="M180 875h113v-110h-113v110zM0 875h113v-110h-113v110z" />
    <glyph glyph-name="ringcomb" unicode="&#x30a;" horiz-adv-x="197" 
d="M197 833q0 -39 -28 -67.5t-71 -28.5q-19 0 -37 7.5t-31.5 21t-21.5 31t-8 36.5q0 20 8 37.5t21.5 30t31.5 20t37 7.5q43 0 71 -27.5t28 -67.5zM58 833q0 -18 10.5 -29t29.5 -11q18 0 30 11t12 29q0 22 -12 32t-30 10q-40 0 -40 -42z" />
    <glyph glyph-name="hungarumlautcomb" unicode="&#x30b;" horiz-adv-x="330" 
d="M154 743l59 138h117l-87 -138h-89zM0 743l59 138h117l-87 -138h-89z" />
    <glyph glyph-name="caroncomb" unicode="&#x30c;" horiz-adv-x="324" 
d="M162 809l59 68h103l-124 -138h-76l-124 138h103z" />
    <glyph glyph-name="commaaccentcomb" unicode="&#x326;" horiz-adv-x="143" 
d="M0 -182l48 112h95l-71 -112h-72z" />
    <glyph glyph-name="cedillacomb" unicode="&#x327;" horiz-adv-x="245" 
d="M12 -222l12 65h124q4 0 5 4l6 37q0 4 -3 4h-126l18 109h63l-9 -47h104q14 0 21.5 -8t4.5 -22l-18 -109q-2 -15 -12 -24t-24 -9h-166z" />
    <glyph glyph-name="ogonekcomb" unicode="&#x328;" horiz-adv-x="196" 
d="M34 -190q-15 0 -24.5 8t-9.5 22v42q0 14 3.5 22.5t10.5 19.5l71 112l84 -24v-13l-74 -108h101v-81h-162z" />
    <glyph glyph-name="Wgrave" unicode="&#x1e80;" horiz-adv-x="558" 
d="M145 881h118l58 -138h-89zM215 0h-95l-88 675h106l41 -437l54 437h94l57 -440l42 440h100l-87 -675h-94l-65 449z" />
    <glyph glyph-name="wgrave" unicode="&#x1e81;" horiz-adv-x="558" 
d="M145 881h118l58 -138h-89zM215 0h-95l-88 675h106l41 -437l54 437h94l57 -440l42 440h100l-87 -675h-94l-65 449z" />
    <glyph glyph-name="Wacute" unicode="&#x1e82;" horiz-adv-x="558" 
d="M230 743l59 138h117l-87 -138h-89zM215 0h-95l-88 675h106l41 -437l54 437h94l57 -440l42 440h100l-87 -675h-94l-65 449z" />
    <glyph glyph-name="wacute" unicode="&#x1e83;" horiz-adv-x="558" 
d="M230 743l59 138h117l-87 -138h-89zM215 0h-95l-88 675h106l41 -437l54 437h94l57 -440l42 440h100l-87 -675h-94l-65 449z" />
    <glyph glyph-name="Wdieresis" unicode="&#x1e84;" horiz-adv-x="558" 
d="M312 875h113v-110h-113v110zM132 875h113v-110h-113v110zM215 0h-95l-88 675h106l41 -437l54 437h94l57 -440l42 440h100l-87 -675h-94l-65 449z" />
    <glyph glyph-name="wdieresis" unicode="&#x1e85;" horiz-adv-x="558" 
d="M312 875h113v-110h-113v110zM132 875h113v-110h-113v110zM215 0h-95l-88 675h106l41 -437l54 437h94l57 -440l42 440h100l-87 -675h-94l-65 449z" />
    <glyph glyph-name="Germandbls" unicode="&#x1e9e;" horiz-adv-x="482" 
d="M180 0h-111v675h303q51 0 65 -29t-6 -77l-83 -194h10q45 0 65 -21.5t20 -69.5v-198q0 -40 -24 -63t-66 -23h-114v128h83q10 0 10 10v128q0 4 -2.5 7.5t-7.5 3.5h-81v100l70 187q6 13 -6 13h-125v-577z" />
    <glyph glyph-name="Etilde" unicode="&#x1ebc;" horiz-adv-x="358" 
d="M138 860q22 0 38 -7t28 -15l22.5 -15t22.5 -7q17 0 25 13t8 30h76q0 -60 -26.5 -90t-70.5 -30q-22 0 -38 6.5t-28.5 15t-23.5 15t-23 6.5q-17 0 -24.5 -12.5t-7.5 -29.5h-76q0 60 26.5 90t71.5 30zM69 675h249v-97h-136v-190h111v-94h-111v-197h136v-97h-249v675z" />
    <glyph glyph-name="etilde" unicode="&#x1ebd;" horiz-adv-x="358" 
d="M138 860q22 0 38 -7t28 -15l22.5 -15t22.5 -7q17 0 25 13t8 30h76q0 -60 -26.5 -90t-70.5 -30q-22 0 -38 6.5t-28.5 15t-23.5 15t-23 6.5q-17 0 -24.5 -12.5t-7.5 -29.5h-76q0 60 26.5 90t71.5 30zM69 675h249v-97h-136v-190h111v-94h-111v-197h136v-97h-249v675z" />
    <glyph glyph-name="Ygrave" unicode="&#x1ef2;" horiz-adv-x="405" 
d="M74 881h118l58 -138h-89zM258 208v-208h-111v208h-16q-38 0 -60 21.5t-22 58.5v387h112v-360q0 -4 3 -7t5 -3h71q4 0 4 10v360h112v-387q0 -37 -22.5 -58.5t-60.5 -21.5h-15z" />
    <glyph glyph-name="ygrave" unicode="&#x1ef3;" horiz-adv-x="405" 
d="M74 881h118l58 -138h-89zM258 208v-208h-111v208h-16q-38 0 -60 21.5t-22 58.5v387h112v-360q0 -4 3 -7t5 -3h71q4 0 4 10v360h112v-387q0 -37 -22.5 -58.5t-60.5 -21.5h-15z" />
    <glyph glyph-name="Ytilde" unicode="&#x1ef8;" horiz-adv-x="405" 
d="M145 860q22 0 38 -7t28 -15l22.5 -15t22.5 -7q17 0 25 13t8 30h76q0 -60 -26.5 -90t-70.5 -30q-22 0 -38 6.5t-28.5 15t-23.5 15t-23 6.5q-17 0 -24.5 -12.5t-7.5 -29.5h-76q0 60 26.5 90t71.5 30zM258 208v-208h-111v208h-16q-38 0 -60 21.5t-22 58.5v387h112v-360
q0 -4 3 -7t5 -3h71q4 0 4 10v360h112v-387q0 -37 -22.5 -58.5t-60.5 -21.5h-15z" />
    <glyph glyph-name="ytilde" unicode="&#x1ef9;" horiz-adv-x="405" 
d="M145 860q22 0 38 -7t28 -15l22.5 -15t22.5 -7q17 0 25 13t8 30h76q0 -60 -26.5 -90t-70.5 -30q-22 0 -38 6.5t-28.5 15t-23.5 15t-23 6.5q-17 0 -24.5 -12.5t-7.5 -29.5h-76q0 60 26.5 90t71.5 30zM258 208v-208h-111v208h-16q-38 0 -60 21.5t-22 58.5v387h112v-360
q0 -4 3 -7t5 -3h71q4 0 4 10v360h112v-387q0 -37 -22.5 -58.5t-60.5 -21.5h-15z" />
    <glyph glyph-name="thinspace" unicode="&#x2009;" horiz-adv-x="100" 
 />
    <glyph glyph-name="endash" unicode="&#x2013;" horiz-adv-x="378" 
d="M309 386v-113h-240v113h240z" />
    <glyph glyph-name="emdash" unicode="&#x2014;" horiz-adv-x="516" 
d="M447 386v-113h-378v113h378z" />
    <glyph glyph-name="quoteleft" unicode="&#x2018;" horiz-adv-x="291" 
d="M174 401h-128l90 274h109z" />
    <glyph glyph-name="quoteright" unicode="&#x2019;" horiz-adv-x="291" 
d="M117 675h128l-90 -274h-109z" />
    <glyph glyph-name="quotesinglbase" unicode="&#x201a;" horiz-adv-x="213" 
d="M63 -100l-17 284h121l-16 -284h-88z" />
    <glyph glyph-name="quotedblleft" unicode="&#x201c;" horiz-adv-x="514" 
d="M397 401h-128l90 274h109zM174 401h-128l90 274h109z" />
    <glyph glyph-name="quotedblright" unicode="&#x201d;" horiz-adv-x="514" 
d="M117 675h128l-90 -274h-109zM340 675h128l-90 -274h-109z" />
    <glyph glyph-name="quotedblbase" unicode="&#x201e;" horiz-adv-x="428" 
d="M278 -100l-16 284h120l-16 -284h-88zM63 -100l-17 284h121l-16 -284h-88z" />
    <glyph glyph-name="dagger" unicode="&#x2020;" horiz-adv-x="459" 
d="M283 389v-389h-107v389h-144v94h144v192h107v-192h144v-94h-144z" />
    <glyph glyph-name="daggerdbl" unicode="&#x2021;" horiz-adv-x="533" 
d="M320 184v-184h-107v184h-144v94h144v145h-144v94h144v158h107v-158h144v-94h-144v-145h144v-94h-144z" />
    <glyph glyph-name="bullet" unicode="&#x2022;" horiz-adv-x="306" 
d="M69 413h168v-167h-168v167z" />
    <glyph glyph-name="ellipsis" unicode="&#x2026;" horiz-adv-x="526" 
d="M480 0h-113v156h113v-156zM320 0h-113v156h113v-156zM160 0h-114v156h114v-156z" />
    <glyph glyph-name="perthousand" unicode="&#x2030;" horiz-adv-x="1257" 
d="M592 516h-124l107 188h124zM328 675q20 0 33.5 -13t13.5 -32v-312q0 -20 -13.5 -33t-33.5 -13h-214q-19 0 -33.5 13t-14.5 33v312q0 19 14.5 32t33.5 13h214zM270 589h-99v-230h99v230zM1146 403q20 0 33.5 -13t13.5 -32v-312q0 -20 -13.5 -33t-33.5 -13h-214
q-19 0 -33.5 13t-14.5 33v312q0 19 14.5 32t33.5 13h214zM752 403q20 0 33.5 -13t13.5 -32v-312q0 -20 -13.5 -33t-33.5 -13h-214q-19 0 -33.5 13t-14.5 33v312q0 19 14.5 32t33.5 13h214zM1088 317h-99v-230h99v230zM694 317h-99v-230h99v230zM383 148l-106 -187h-123
l106 187h123z" />
    <glyph glyph-name="second" unicode="&#x2033;" horiz-adv-x="514" 
d="M117 675h128l-90 -274h-109zM340 675h128l-90 -274h-109z" />
    <glyph glyph-name="guilsinglleft" unicode="&#x2039;" horiz-adv-x="461" 
d="M69 301v71l323 150v-119l-182 -65l182 -65v-123z" />
    <glyph glyph-name="guilsinglright" unicode="&#x203a;" horiz-adv-x="429" 
d="M69 150v123l164 65l-164 65v119l291 -150v-71z" />
    <glyph glyph-name="fraction" unicode="&#x2044;" horiz-adv-x="105" 
d="M218 516h-124l107 188h124zM9 148l-106 -187h-123l106 187h123z" />
    <glyph glyph-name="Euro" unicode="&#x20ac;" horiz-adv-x="428" 
d="M391 0h-199q-32 0 -54.5 22t-22.5 55v148h-85l30 81h55v66h-85l30 81h55v146q0 31 22.5 53.5t54.5 22.5h199v-94h-154q-11 0 -11 -11v-117h170l-30 -81h-140v-66h170l-30 -81h-140v-121q0 -10 11 -10h154v-94z" />
    <glyph glyph-name="numero" unicode="&#x2116;" horiz-adv-x="844" 
d="M739 680q19 0 30.5 -14.5t11.5 -36.5v-391q0 -22 -11.5 -36t-30.5 -14h-193q-19 0 -30.5 14t-11.5 36v391q0 22 11.5 36.5t30.5 14.5h193zM686 592q0 8 -6 8h-76q-2 0 -3.5 -3t-1.5 -5v-316q0 -2 1.5 -4.5t3.5 -2.5h76q6 0 6 7v316zM164 380v-380h-95v675h94l128 -406
v406h95v-675h-93zM781 91v-91h-277v91h277z" />
    <glyph glyph-name="servicemark" unicode="&#x2120;" horiz-adv-x="431" 
d="M30 389h65q4 0 4 4v85q0 4 -4 4h-31q-15 0 -24.5 10t-9.5 25v124q0 15 9.5 25t24.5 10h88v-49h-63q-4 0 -4 -5v-83q0 -4 4 -4h32q15 0 24.5 -10t9.5 -25v-127q0 -15 -9.5 -25t-24.5 -10h-91v51zM252 538v-200h-50v338h49l47 -160l46 160h51v-338h-53v200l-35 -109h-20z
" />
    <glyph glyph-name="trademark" unicode="&#x2122;" horiz-adv-x="425" 
d="M119 627v-289h-56v289h-43v49h141v-49h-42zM246 538v-200h-50v338h49l47 -160l46 160h51v-338h-53v200l-35 -109h-20z" />
    <glyph glyph-name="onethird" unicode="&#x2153;" horiz-adv-x="424" 
d="M120 438v49h64v140l-51 -13l-8 44l65 22h58v-193h56v-49h-184zM392 368v-52h-360v52h360zM129 0v52h102v48h-96v48h96v43h-102v51h138q27 0 27 -27v-58q0 -26 -28 -32q15 -4 21.5 -15.5t6.5 -23.5v-58q0 -28 -27 -28h-138z" />
    <glyph glyph-name="twothirds" unicode="&#x2154;" horiz-adv-x="424" 
d="M186 494h112v-56h-175v121q0 27 27 27h87v42h-109v52h145q28 0 28 -28v-85q0 -27 -28 -27h-87v-46zM392 368v-52h-360v52h360zM129 0v52h102v48h-96v48h96v43h-102v51h138q27 0 27 -27v-58q0 -26 -28 -32q15 -4 21.5 -15.5t6.5 -23.5v-58q0 -28 -27 -28h-138z" />
    <glyph glyph-name="oneeighth" unicode="&#x215b;" horiz-adv-x="424" 
d="M120 438v49h64v140l-51 -13l-8 44l65 22h58v-193h56v-49h-184zM392 368v-52h-360v52h360zM304 146q0 -11 -8 -16t-19 -5q11 0 19 -8t8 -19v-70q0 -28 -27 -28h-130q-28 0 -28 28v70q0 11 8.5 19t19.5 8q-11 0 -19.5 5t-8.5 16v68q0 28 28 28h130q27 0 27 -28v-68z
M241 191h-59v-48h59v48zM241 101h-59v-50h59v50z" />
    <glyph glyph-name="threeeighths" unicode="&#x215c;" horiz-adv-x="424" 
d="M129 438v51h102v48h-96v48h96v43h-102v52h138q27 0 27 -28v-58q0 -27 -28 -31q15 -5 21.5 -16t6.5 -24v-58q0 -27 -27 -27h-138zM392 368v-52h-360v52h360zM304 146q0 -11 -8 -16t-19 -5q11 0 19 -8t8 -19v-70q0 -28 -27 -28h-130q-28 0 -28 28v70q0 11 8.5 19t19.5 8
q-11 0 -19.5 5t-8.5 16v68q0 28 28 28h130q27 0 27 -28v-68zM241 191h-59v-48h59v48zM241 101h-59v-50h59v50z" />
    <glyph glyph-name="fiveeighths" unicode="&#x215d;" horiz-adv-x="424" 
d="M181 628v-43h91q27 0 27 -27v-92q0 -28 -27 -28h-147v52h111v47h-111v143h168v-52h-112zM392 368v-52h-360v52h360zM304 146q0 -11 -8 -16t-19 -5q11 0 19 -8t8 -19v-70q0 -28 -27 -28h-130q-28 0 -28 28v70q0 11 8.5 19t19.5 8q-11 0 -19.5 5t-8.5 16v68q0 28 28 28h130
q27 0 27 -28v-68zM241 191h-59v-48h59v48zM241 101h-59v-50h59v50z" />
    <glyph glyph-name="seveneighths" unicode="&#x215e;" horiz-adv-x="424" 
d="M302 680v-52l-103 -190h-72l107 186h-113v56h181zM392 368v-52h-360v52h360zM304 146q0 -11 -8 -16t-19 -5q11 0 19 -8t8 -19v-70q0 -28 -27 -28h-130q-28 0 -28 28v70q0 11 8.5 19t19.5 8q-11 0 -19.5 5t-8.5 16v68q0 28 28 28h130q27 0 27 -28v-68zM241 191h-59v-48h59
v48zM241 101h-59v-50h59v50z" />
    <glyph glyph-name="minus" unicode="&#x2212;" horiz-adv-x="469" 
d="M69 268v104h331v-104h-331z" />
    <glyph glyph-name="approxequal" unicode="&#x2248;" horiz-adv-x="531" 
d="M359 475q-27 0 -48.5 -4.5t-42.5 -10t-44 -10t-53 -4.5q-41 0 -64 9t-38 19v97q15 -10 38.5 -19t63.5 -9q28 0 49.5 4.5t42.5 10.5t43.5 10.5t52.5 4.5q42 0 64.5 -9t38.5 -19v-98q-16 11 -39.5 19.5t-63.5 8.5zM69 274v99h393v-99h-393zM69 85v99h393v-99h-393z" />
    <glyph glyph-name="notequal" unicode="&#x2260;" horiz-adv-x="469" 
d="M209 171l-62 -164l-59 24l53 140h-72v99h110l34 90h-144v99h181l57 150l57 -24l-47 -126h83v-99h-120l-34 -90h154v-99h-191z" />
    <glyph glyph-name="lessequal" unicode="&#x2264;" horiz-adv-x="507" 
d="M69 318v146l369 118v-112l-286 -80l286 -61v-120zM69 146h369v-106h-369v106z" />
    <glyph glyph-name="greaterequal" unicode="&#x2265;" horiz-adv-x="507" 
d="M69 209v120l286 61l-286 80v112l369 -118v-146zM438 40h-369v106h369v-106z" />
    <glyph glyph-name="Pcircle" unicode="&#x24c5;" horiz-adv-x="820" 
d="M651 675q35 0 57 -22t22 -57v-517q0 -35 -22 -57t-57 -22h-482q-35 0 -57 22t-22 57v517q0 35 22 57t57 22h482zM628 576q0 5 -4.5 9.5t-9.5 4.5h-410q-4 0 -8 -4.5t-4 -9.5v-480q0 -5 4 -8t8 -3h410q5 0 9.5 3t4.5 8v480zM370 245v-97h-98v380h239q18 0 30.5 -12.5
t12.5 -30.5v-197q0 -19 -12.5 -31t-30.5 -12h-141zM457 441q0 5 -5 5h-82v-117h82q5 0 5 5v107z" />
    <glyph glyph-name="uni2B22" unicode="&#x2b22;" horiz-adv-x="375" 
d="M306 416v-138l-118 -68l-119 68v138l119 68zM188 291q24 0 40 16.5t16 40.5q0 25 -16 42t-40 17q-26 0 -42.5 -17t-16.5 -42q0 -24 16.5 -40.5t42.5 -16.5z" />
    <glyph glyph-name="uniE000" unicode="&#xe000;" horiz-adv-x="1036" 
d="M899 474q16 -5 26.5 -19.5t10.5 -30.5v-168q0 -16 -10.5 -30.5t-26.5 -19.5l-343 -108q-17 -5 -37.5 -5t-37.5 5l-342 108q-16 5 -27.5 19.5t-11.5 30.5v168q0 16 11.5 30.5t27.5 19.5l342 111q16 5 37.5 5t37.5 -5zM617 404q0 15 -10.5 26t-26.5 11h-146v-195h146
q16 0 26.5 11.5t10.5 25.5v121zM390 404q0 15 -11.5 26t-26.5 11h-146v-195h146q15 0 26.5 11.5t11.5 25.5v121zM808 246q15 0 26 11.5t11 25.5v27h-57v-12q0 -2 -3 -6q-1 -2 -3 -3h-58q-2 0 -4 3t-2 6v92q0 3 2 4.5t4 1.5h58q2 -1 3 -1q3 -3 3 -5v-16h57v30q0 15 -11 26
t-26 11h-109q-17 0 -28 -11t-11 -26v-121q0 -14 11 -25.5t28 -11.5h109zM324 396q9 0 9 -6v-92q0 -3 -2.5 -6t-6.5 -3h-60v107h60zM555 396q1 0 3 -1.5t2 -4.5v-92q0 -3 -2 -6t-3 -3h-64v107h64z" />
    <glyph glyph-name="uniF8FF" unicode="&#xf8ff;" horiz-adv-x="737" 
d="M394 623q-21 0 -41.5 -37.5t-50.5 -125.5q24 5 45 16.5t36.5 28t24.5 38t9 45.5q0 14 -5 24.5t-18 10.5zM75 223q26 0 45 19t36 45q-21 8 -36.5 12.5t-33.5 4.5q-21 0 -36 -12t-15 -34q0 -17 11.5 -26t28.5 -9zM464 164q-30 -43 -72 -70.5t-90 -27.5q-40 0 -64 19.5
t-24 50.5q0 26 19 44.5t45 18.5q22 0 31 -9.5t9 -22.5t-8.5 -22t-25.5 -9q-13 0 -20.5 7t-7.5 17t2.5 15t4.5 8q-31 -15 -31 -47q0 -26 19 -39t45 -13q35 0 61.5 25.5t48.5 73.5q-53 17 -105.5 41t-97.5 46q-62 -64 -122 -64q-30 0 -50 13t-20 39q0 30 26 49.5t79 19.5
q17 0 32 -2t26 -4q11 24 21 52.5t22 64.5q-54 4 -80.5 25t-26.5 56t22.5 58t52.5 23q22 0 31.5 -10.5t9.5 -23.5q0 -14 -8 -23t-20 -9q-30 0 -30 26q0 8 2 13.5t4 9.5q-22 -9 -34 -26t-12 -38q0 -31 26.5 -45.5t65.5 -18.5q20 53 42 88t44.5 57t43.5 31t39 9q52 0 52 -52
q0 -28 -11.5 -53.5t-31 -45.5t-46.5 -33.5t-59 -17.5q-14 -41 -29 -73.5t-32 -54.5q53 -14 103 -36t95 -39q4 13 11 26t12 26q13 30 26.5 56t30.5 48q-52 18 -99 18q-38 0 -56.5 -16t-18.5 -42q0 -23 14.5 -32t31.5 -9q18 0 27.5 7.5t14.5 21.5q-5 -4 -9.5 -4.5t-8.5 -0.5
q-9 0 -19 5.5t-10 19.5q0 29 31 29q14 0 23.5 -10t9.5 -27q0 -23 -16.5 -41t-42.5 -18t-45 16.5t-19 47.5q0 40 33 69.5t90 29.5q58 0 104 -17q22 26 42 39.5t34 18.5l11 -7q-17 -13 -27 -29.5t-19 -33.5q13 0 26 -3t26 -3q35 0 49.5 18.5t14.5 44.5q0 40 -30.5 58.5
t-73.5 18.5q-27 0 -50.5 -6t-37.5 -23q14 0 22 -6t8 -19q0 -14 -8 -21t-22 -7q-13 0 -21 7.5t-8 21.5q0 15 9.5 28t25 22t37 14.5t45.5 5.5q60 0 93.5 -27.5t33.5 -71.5q0 -17 -6.5 -35.5t-21 -33.5t-36.5 -25t-52 -10q-13 0 -25.5 0.5t-21.5 4.5q-13 -26 -23.5 -57
t-28.5 -70q-5 -13 -10 -23t-13 -23q53 -18 92 -18q32 0 54 19t22 45q0 22 -11.5 31.5t-28.5 14.5q5 -5 8 -9.5t3 -13.5q0 -13 -10 -21.5t-24 -8.5t-24.5 8.5t-10.5 21.5q0 17 13 28.5t39 11.5t44.5 -16.5t18.5 -46.5q0 -44 -33.5 -71.5t-99.5 -27.5q-18 0 -38 3.5t-37 7.5z
" />
    <glyph glyph-name="fi" unicode="&#xfb01;" horiz-adv-x="589" 
d="M69 675h251v-97h-139v-217h115v-97h-115v-264h-112v675zM520 0h-107v675h107v-675z" />
    <glyph glyph-name="fl" unicode="&#xfb02;" horiz-adv-x="675" 
d="M69 675h251v-97h-139v-217h115v-97h-115v-264h-112v675zM413 675h112v-575h130v-100h-242v675z" />
    <glyph glyph-name="A_N_D" horiz-adv-x="1169" 
d="M1031 675q30 0 52.5 -18.5t22.5 -49.5v-347q0 -31 -22.5 -49.5t-52.5 -18.5h-200v483h200zM1011 582q0 12 -28 12h-56v-321h56q28 0 28 13v296zM243 420v162q0 12 -13 12h-60q-12 0 -12 -12v-162h85zM528 454v-262h-88v483h88l111 -274v274h88v-483h-91zM339 192h-96v139
h-85v-139h-95v434q0 22 11.5 35.5t31.5 13.5h190q19 0 31 -13.5t12 -35.5v-434zM1106 91v-91h-1043v91h1043z" />
    <glyph glyph-name="A_V_E" horiz-adv-x="1067" 
d="M507 192l-103 483h102l52 -347l63 347h94l-106 -483h-102zM783 675h244v-81h-149v-118h129v-79h-129v-124h149v-81h-244v483zM243 420v162q0 12 -13 12h-60q-12 0 -12 -12v-162h85zM339 192h-96v139h-85v-139h-95v434q0 22 11.5 35.5t31.5 13.5h190q19 0 31 -13.5
t12 -35.5v-434zM1027 91v-91h-964v91h964z" />
    <glyph glyph-name="B_L_V_D" horiz-adv-x="1450" 
d="M1312 675q30 0 52.5 -18.5t22.5 -49.5v-347q0 -31 -22.5 -49.5t-52.5 -18.5h-200v483h200zM498 675h95v-400h118v-83h-213v483zM836 192l-103 483h102l52 -347l63 347h94l-106 -483h-102zM121 192v483h229q23 0 36 -13.5t13 -35.5v-134q0 -29 -13.5 -42t-42.5 -15
q59 -8 59 -57v-137q0 -22 -13 -35.5t-36 -13.5h-232zM1292 582q0 12 -28 12h-56v-321h56q28 0 28 13v296zM308 582q0 10 -5 10h-87v-118h87q5 0 5 11v97zM308 388q0 12 -5 12h-87v-125h87q5 0 5 10v103zM1387 91v-91h-1318v91h1318z" />
    <glyph glyph-name="C_I_R" horiz-adv-x="954" 
d="M520 192h-95v483h95v-483zM335 372v-126q0 -26 -12.5 -42.5t-29.5 -16.5h-189q-17 0 -29 16.5t-12 42.5v374q0 27 12 43.5t29 16.5h189q17 0 29.5 -16.5t12.5 -43.5v-124h-95v95q0 8 -5 8h-71q-6 0 -6 -8v-315q0 -8 6 -8h71q2 0 3.5 7.5t1.5 10.5v86h95zM805 587
q0 7 -5 7h-79v-163h79q5 0 5 6v150zM761 353h-40v-161h-96v483h235q16 0 28 -16t12 -43v-204q0 -27 -12 -43t-28 -16h-5l46 -161h-93zM901 91v-91h-838v91h838z" />
    <glyph glyph-name="C_O" horiz-adv-x="765" 
d="M660 680q19 0 30.5 -14.5t11.5 -36.5v-391q0 -22 -11.5 -36t-30.5 -14h-193q-19 0 -30.5 14t-11.5 36v391q0 22 11.5 36.5t30.5 14.5h193zM607 592q0 8 -6 8h-76q-2 0 -3.5 -3t-1.5 -5v-316q0 -2 1.5 -4.5t3.5 -2.5h76q6 0 6 7v316zM335 372v-126q0 -26 -12.5 -42.5
t-29.5 -16.5h-189q-17 0 -29 16.5t-12 42.5v374q0 27 12 43.5t29 16.5h189q17 0 29.5 -16.5t12.5 -43.5v-124h-95v95q0 8 -5 8h-71q-6 0 -6 -8v-315q0 -8 6 -8h71q2 0 3.5 7.5t1.5 10.5v86h95zM702 91v-91h-639v91h639z" />
    <glyph glyph-name="C_O_O_P" horiz-adv-x="1715" 
d="M657 680q19 0 30.5 -14.5t11.5 -36.5v-391q0 -22 -11.5 -36t-30.5 -14h-193q-19 0 -30.5 14t-11.5 36v391q0 22 11.5 36.5t30.5 14.5h193zM1255 680q19 0 30.5 -14.5t11.5 -36.5v-391q0 -22 -11.5 -36t-30.5 -14h-193q-19 0 -30.5 14t-11.5 36v391q0 22 11.5 36.5
t30.5 14.5h193zM604 592q0 8 -6 8h-76q-2 0 -3.5 -3t-1.5 -5v-316q0 -2 1.5 -4.5t3.5 -2.5h76q6 0 6 7v316zM1202 592q0 8 -6 8h-76q-2 0 -3.5 -3t-1.5 -5v-316q0 -2 1.5 -4.5t3.5 -2.5h76q6 0 6 7v316zM335 372v-126q0 -26 -12.5 -42.5t-29.5 -16.5h-189q-17 0 -29 16.5
t-12 42.5v374q0 27 12 43.5t29 16.5h189q17 0 29.5 -16.5t12.5 -43.5v-124h-95v95q0 8 -5 8h-71q-6 0 -6 -8v-315q0 -8 6 -8h71q2 0 3.5 7.5t1.5 10.5v86h95zM1567 404q5 0 5 7v176q0 7 -5 7h-73v-190h73zM943 486v-91h-167v91h167zM1494 325v-133h-95v483h213
q28 0 41.5 -16t13.5 -43v-231q0 -27 -13.5 -43.5t-41.5 -16.5h-118zM1667 91v-91h-1604v91h1604z" />
    <glyph glyph-name="C_ordinal" horiz-adv-x="450" 
d="M363 372v-126q0 -26 -12.5 -42.5t-29.5 -16.5h-189q-17 0 -29 16.5t-12 42.5v374q0 27 12 43.5t29 16.5h189q17 0 29.5 -16.5t12.5 -43.5v-124h-95v95q0 8 -5 8h-71q-6 0 -6 -8v-315q0 -8 6 -8h71q2 0 3.5 7.5t1.5 10.5v86h95zM363 91v-91h-272v91h272z" />
    <glyph glyph-name="D_O_Z" horiz-adv-x="1088" 
d="M677 680q19 0 30.5 -14.5t11.5 -36.5v-391q0 -22 -11.5 -36t-30.5 -14h-193q-19 0 -30.5 14t-11.5 36v391q0 22 11.5 36.5t30.5 14.5h193zM798 192v64l142 340h-137v79h248v-64l-145 -340h151v-79h-259zM269 675q30 0 52.5 -18.5t22.5 -49.5v-347q0 -31 -22.5 -49.5
t-52.5 -18.5h-200v483h200zM624 592q0 8 -6 8h-76q-2 0 -3.5 -3t-1.5 -5v-316q0 -2 1.5 -4.5t3.5 -2.5h76q6 0 6 7v316zM249 582q0 12 -28 12h-56v-321h56q28 0 28 13v296zM1057 91v-91h-988v91h988z" />
    <glyph glyph-name="E_X_P" horiz-adv-x="1060" 
d="M69 675h244v-81h-149v-118h129v-79h-129v-124h149v-81h-244v483zM912 404q5 0 5 7v176q0 7 -5 7h-73v-190h73zM515 327l-52 -135h-101l108 241l-105 242h107l57 -140l46 140h103l-102 -250l100 -233h-105zM839 325v-133h-95v483h208q32 0 46 -16t14 -43v-231
q0 -27 -14 -43.5t-46 -16.5h-113zM1012 91v-91h-943v91h943z" />
    <glyph glyph-name="I.alt" horiz-adv-x="361" 
d="M35 0v94h92v487h-92v94h291v-94h-92v-487h92v-94h-291z" />
    <glyph glyph-name="I_N_C" horiz-adv-x="968" 
d="M164 192h-95v483h95v-483zM929 372v-126q0 -26 -12.5 -42.5t-29.5 -16.5h-189q-17 0 -29 16.5t-12 42.5v374q0 27 12 43.5t29 16.5h189q17 0 29.5 -16.5t12.5 -43.5v-124h-95v95q0 8 -5 8h-71q-6 0 -6 -8v-315q0 -8 6 -8h71q2 0 3.5 7.5t1.5 10.5v86h95zM357 454v-262
h-88v483h88l111 -274v274h88v-483h-91zM929 91v-91h-860v91h860z" />
    <glyph glyph-name="K_P_H" horiz-adv-x="1142" 
d="M602 404q5 0 5 7v176q0 7 -5 7h-73v-190h73zM69 192v483h96v-186l95 186h107l-116 -213l121 -270h-105l-81 201l-21 -33v-168h-96zM791 192v483h96v-204h91v204h95v-483h-95v198h-91v-198h-96zM529 325v-133h-95v483h228q17 0 28.5 -16t11.5 -43v-231q0 -27 -11.5 -43.5
t-28.5 -16.5h-133zM1073 91v-91h-1004v91h1004z" />
    <glyph glyph-name="L_L_C" horiz-adv-x="956" 
d="M363 675h95v-400h118v-83h-213v483zM69 675h95v-400h118v-83h-213v483zM917 372v-126q0 -26 -12.5 -42.5t-29.5 -16.5h-189q-17 0 -29 16.5t-12 42.5v374q0 27 12 43.5t29 16.5h189q17 0 29.5 -16.5t12.5 -43.5v-124h-95v95q0 8 -5 8h-71q-6 0 -6 -8v-315q0 -8 6 -8h71
q2 0 3.5 7.5t1.5 10.5v86h95zM917 91v-91h-848v91h848z" />
    <glyph glyph-name="L_T_D" horiz-adv-x="979" 
d="M841 675q30 0 52.5 -18.5t22.5 -49.5v-347q0 -31 -22.5 -49.5t-52.5 -18.5h-200v483h200zM69 675h95v-400h118v-83h-213v483zM486 594v-402h-95v402h-85v81h265v-81h-85zM821 582q0 12 -28 12h-56v-321h56q28 0 28 13v296zM916 91v-91h-847v91h847z" />
    <glyph glyph-name="M_D" horiz-adv-x="852" 
d="M714 675q30 0 52.5 -18.5t22.5 -49.5v-347q0 -31 -22.5 -49.5t-52.5 -18.5h-200v483h200zM694 582q0 12 -28 12h-56v-321h56q28 0 28 13v296zM157 468v-276h-88v483h97l75 -242l68 242h101v-483h-90v281l-57 -152h-48zM789 91v-91h-720v91h720z" />
    <glyph glyph-name="M_F_G" horiz-adv-x="1162" 
d="M871 188q-17 0 -29 16.5t-12 42.5v373q0 27 12 43.5t29 16.5h232v-87h-173q-5 0 -5 -8v-314q0 -7 5 -7h78q6 0 6 7v137h-51v79h169v-79h-31v-161q0 -26 -11.5 -42.5t-28.5 -16.5h-190zM514 675h236v-81h-141v-143h122v-81h-122v-178h-95v483zM157 468v-276h-88v483h97
l75 -242l68 242h101v-483h-90v281l-57 -152h-48zM1101 91v-91h-1032v91h1032z" />
    <glyph glyph-name="M_P_H" horiz-adv-x="1222" 
d="M682 404q5 0 5 7v176q0 7 -5 7h-73v-190h73zM157 468v-276h-88v483h97l75 -242l68 242h101v-483h-90v281l-57 -152h-48zM871 192v483h96v-204h91v204h95v-483h-95v198h-91v-198h-96zM609 325v-133h-95v483h228q17 0 28.5 -16t11.5 -43v-231q0 -27 -11.5 -43.5
t-28.5 -16.5h-133zM1153 91v-91h-1084v91h1084z" />
    <glyph glyph-name="M_R" horiz-adv-x="843" 
d="M694 587q0 7 -5 7h-79v-163h79q5 0 5 6v150zM157 468v-276h-88v483h97l75 -242l68 242h101v-483h-90v281l-57 -152h-48zM650 353h-40v-161h-96v483h235q16 0 28 -16t12 -43v-204q0 -27 -12 -43t-28 -16h-5l46 -161h-93zM790 91v-91h-721v91h721z" />
    <glyph glyph-name="M_R_S" horiz-adv-x="1160" 
d="M879 276h141q6 0 6 6v94q0 6 -6 6h-98q-19 0 -31 14t-12 36v194q0 22 12 35.5t31 13.5h193v-86h-135q-5 0 -5 -8v-91q0 -6 5 -6h98q19 0 30.5 -14t11.5 -36v-193q0 -21 -11.5 -35t-30.5 -14h-199v84zM694 587q0 7 -5 7h-79v-163h79q5 0 5 6v150zM157 468v-276h-88v483h97
l75 -242l68 242h101v-483h-90v281l-57 -152h-48zM650 353h-40v-161h-96v483h235q16 0 28 -16t12 -43v-204q0 -27 -12 -43t-28 -16h-5l46 -161h-93zM1120 91v-91h-1051v91h1051z" />
    <glyph glyph-name="M_S" horiz-adv-x="788" 
d="M507 276h141q6 0 6 6v94q0 6 -6 6h-98q-19 0 -31 14t-12 36v194q0 22 12 35.5t31 13.5h193v-86h-135q-5 0 -5 -8v-91q0 -6 5 -6h98q19 0 30.5 -14t11.5 -36v-193q0 -21 -11.5 -35t-30.5 -14h-199v84zM157 468v-276h-88v483h97l75 -242l68 242h101v-483h-90v281l-57 -152
h-48zM748 91v-91h-679v91h679z" />
    <glyph glyph-name="M_X" horiz-adv-x="814" 
d="M157 468v-276h-88v483h97l75 -242l68 242h101v-483h-90v281l-57 -152h-48zM625 327l-52 -135h-101l108 241l-105 242h107l57 -140l46 140h103l-102 -250l100 -233h-105zM786 91v-91h-717v91h717z" />
    <glyph glyph-name="O_Z" horiz-adv-x="709" 
d="M298 680q19 0 30.5 -14.5t11.5 -36.5v-391q0 -22 -11.5 -36t-30.5 -14h-193q-19 0 -30.5 14t-11.5 36v391q0 22 11.5 36.5t30.5 14.5h193zM419 192v64l142 340h-137v79h248v-64l-145 -340h151v-79h-259zM245 592q0 8 -6 8h-76q-2 0 -3.5 -3t-1.5 -5v-316q0 -2 1.5 -4.5
t3.5 -2.5h76q6 0 6 7v316zM678 91v-91h-615v91h615z" />
    <glyph glyph-name="R_D" horiz-adv-x="779" 
d="M641 675q30 0 52.5 -18.5t22.5 -49.5v-347q0 -31 -22.5 -49.5t-52.5 -18.5h-200v483h200zM621 582q0 12 -28 12h-56v-321h56q28 0 28 13v296zM249 587q0 7 -5 7h-79v-163h79q5 0 5 6v150zM205 353h-40v-161h-96v483h235q16 0 28 -16t12 -43v-204q0 -27 -12 -43t-28 -16
h-5l46 -161h-93zM716 91v-91h-647v91h647z" />
    <glyph glyph-name="R_P_M" horiz-adv-x="1208" 
d="M609 404q5 0 5 7v176q0 7 -5 7h-73v-190h73zM249 587q0 7 -5 7h-79v-163h79q5 0 5 6v150zM886 468v-276h-88v483h97l75 -242l68 242h101v-483h-90v281l-57 -152h-48zM205 353h-40v-161h-96v483h220q27 0 41 -16t14 -43v-204q0 -25 -11.5 -40.5t-33.5 -17.5l46 -162h-93z
M536 325v-133h-95v483h213q28 0 41.5 -16t13.5 -43v-231q0 -27 -13.5 -43.5t-41.5 -16.5h-118zM1139 91v-91h-1070v91h1070z" />
    <glyph glyph-name="S_T" horiz-adv-x="627" 
d="M43 276h141q6 0 6 6v94q0 6 -6 6h-98q-19 0 -31 14t-12 36v194q0 22 12 35.5t31 13.5h193v-86h-135q-5 0 -5 -8v-91q0 -6 5 -6h98q19 0 30.5 -14t11.5 -36v-193q0 -21 -11.5 -35t-30.5 -14h-199v84zM526 594v-402h-95v402h-85v81h265v-81h-85zM585 91v-91h-542v91h542z
" />
    <glyph glyph-name="S_T_E" horiz-adv-x="965" 
d="M681 675h244v-81h-149v-118h129v-79h-129v-124h149v-81h-244v483zM43 276h141q6 0 6 6v94q0 6 -6 6h-98q-19 0 -31 14t-12 36v194q0 22 12 35.5t31 13.5h193v-86h-135q-5 0 -5 -8v-91q0 -6 5 -6h98q19 0 30.5 -14t11.5 -36v-193q0 -21 -11.5 -35t-30.5 -14h-199v84z
M526 594v-402h-95v402h-85v81h265v-81h-85zM925 91v-91h-882v91h882z" />
    <glyph glyph-name="T_H_E" horiz-adv-x="1021" 
d="M737 675h244v-81h-149v-118h129v-79h-129v-124h149v-81h-244v483zM196 594v-402h-95v402h-85v81h265v-81h-85zM351 192v483h96v-204h91v204h95v-483h-95v198h-91v-198h-96zM981 91v-91h-946v91h946z" />
    <glyph glyph-name="ampersand.alt" horiz-adv-x="393" 
d="M260 -107v107h-118q-35 0 -57 22t-22 57v160q0 21 6.5 40.5t18.5 35t29.5 24.5t38.5 9q-43 0 -68 27.5t-25 68.5v152q0 35 22 57t57 22h186v-94h-138q-14 0 -14 -14v-157q0 -14 14 -14h128v-91h-128q-14 0 -14 -14v-183q0 -14 14 -14h70v98h103v-299h-103z" />
    <glyph glyph-name="at.alt" horiz-adv-x="0" 
 />
    <glyph glyph-name="bullet.alt" horiz-adv-x="378" 
d="M189 249q-21 0 -39 8t-31.5 21.5t-21.5 31.5t-8 39t8 39t21.5 31.5t31.5 21.5t39 8t39 -8t31.5 -21.5t21.5 -31.5t8 -39t-8 -39t-21.5 -31.5t-31.5 -21.5t-39 -8z" />
    <glyph glyph-name="e_s_t_D" horiz-adv-x="1396" 
d="M1258 675q30 0 52.5 -18.5t22.5 -49.5v-347q0 -31 -22.5 -49.5t-52.5 -18.5h-200v483h200zM401 101h131q8 0 8 9v169q0 9 -8 9h-63q-30 0 -49 19.5t-19 49.5v249q0 30 19 49.5t49 19.5h177v-97h-127q-7 0 -7 -11v-165q0 -3 2 -6t5 -3h64q30 0 49.5 -19.5t19.5 -49.5v-255
q0 -30 -19.5 -49.5t-49.5 -19.5h-182v101zM69 675h249v-97h-136v-190h111v-94h-111v-197h136v-97h-249v675zM1238 582q0 12 -28 12h-56v-321h56q28 0 28 13v296zM905 578v-578h-112v578h-85v97h282v-97h-85zM1333 91v-91h-299v91h299z" />
    <glyph glyph-name="eight.dnom" horiz-adv-x="419" 
d="M364 244q0 -18 -14 -26.5t-31 -8.5q17 0 31 -14.5t14 -31.5v-117q0 -46 -46 -46h-217q-46 0 -46 46v117q0 17 14.5 31.5t31.5 14.5q-17 0 -31.5 8.5t-14.5 26.5v113q0 46 46 46h217q46 0 46 -46v-113zM259 319h-99v-81h99v81zM259 169h-99v-84h99v84z" />
    <glyph glyph-name="eight.numr" horiz-adv-x="419" 
d="M364 516q0 -18 -14 -26.5t-31 -8.5q17 0 31 -14.5t14 -31.5v-117q0 -46 -46 -46h-217q-46 0 -46 46v117q0 17 14.5 31.5t31.5 14.5q-17 0 -31.5 8.5t-14.5 26.5v113q0 46 46 46h217q46 0 46 -46v-113zM259 591h-99v-81h99v81zM259 441h-99v-84h99v84z" />
    <glyph glyph-name="eleven_sixteenths" horiz-adv-x="650" 
d="M346 438v49h64v140l-51 -13l-8 44l65 22h58v-193h56v-49h-184zM120 438v49h64v140l-51 -13l-8 44l65 22h58v-193h56v-49h-184zM408 189v-39h94q28 0 28 -28v-95q0 -28 -28 -28h-129q-28 0 -28 28v186q0 28 28 28h151v-52h-116zM408 49h60v57h-60v-57zM120 -1v49h64v140
l-51 -13l-8 44l65 22h58v-193h56v-49h-184zM618 368v-52h-586v52h586z" />
    <glyph glyph-name="fifteen_sixteenths" horiz-adv-x="650" 
d="M120 438v49h64v140l-51 -13l-8 44l65 22h58v-193h56v-49h-184zM408 189v-39h94q28 0 28 -28v-95q0 -28 -28 -28h-129q-28 0 -28 28v186q0 28 28 28h151v-52h-116zM408 49h60v57h-60v-57zM120 -1v49h64v140l-51 -13l-8 44l65 22h58v-193h56v-49h-184zM618 368v-52h-586v52
h586zM410 628v-43h91q27 0 27 -27v-92q0 -28 -27 -28h-147v52h111v47h-111v143h168v-52h-112z" />
    <glyph glyph-name="five.dnom" horiz-adv-x="366" 
d="M132 317v-72h151q46 0 46 -46v-153q0 -46 -46 -46h-245v86h186v78h-186v239h280v-86h-186z" />
    <glyph glyph-name="five.numr" horiz-adv-x="366" 
d="M132 589v-72h151q46 0 46 -46v-153q0 -46 -46 -46h-245v86h186v78h-186v239h280v-86h-186z" />
    <glyph glyph-name="five_sixteenths" horiz-adv-x="564" 
d="M251 623v-43h91q27 0 27 -27v-92q0 -28 -27 -28h-147v52h111v47h-111v143h168v-52h-112zM365 189v-39h94q28 0 28 -28v-95q0 -28 -28 -28h-129q-28 0 -28 28v186q0 28 28 28h151v-52h-116zM365 49h60v57h-60v-57zM77 -1v49h64v140l-51 -13l-8 44l65 22h58v-193h56v-49
h-184zM532 368v-52h-500v52h500z" />
    <glyph glyph-name="four.dnom" horiz-adv-x="382" 
d="M370 92h-46v-92h-102v92h-184v311h103v-225h81v225h102v-218h46v-93z" />
    <glyph glyph-name="four.numr" horiz-adv-x="382" 
d="M370 364h-46v-92h-102v92h-184v311h103v-225h81v225h102v-218h46v-93z" />
    <glyph glyph-name="hexagon" horiz-adv-x="375" 
d="M306 416v-138l-118 -68l-119 68v138l119 68z" />
    <glyph glyph-name="horiz_fraction" horiz-adv-x="360" 
d="M360 369v-52l-360 -2v52z" />
    <glyph glyph-name="i.alt" horiz-adv-x="361" 
d="M35 0v94h92v487h-92v94h291v-94h-92v-487h92v-94h-291z" />
    <glyph glyph-name="n_O" horiz-adv-x="844" 
d="M739 680q19 0 30.5 -14.5t11.5 -36.5v-391q0 -22 -11.5 -36t-30.5 -14h-193q-19 0 -30.5 14t-11.5 36v391q0 22 11.5 36.5t30.5 14.5h193zM686 592q0 8 -6 8h-76q-2 0 -3.5 -3t-1.5 -5v-316q0 -2 1.5 -4.5t3.5 -2.5h76q6 0 6 7v316zM164 380v-380h-95v675h94l128 -406
v406h95v-675h-93zM781 91v-91h-277v91h277z" />
    <glyph glyph-name="nine.dnom" horiz-adv-x="401" 
d="M241 86v66h-157q-46 0 -46 46v159q0 46 46 46h216q46 0 46 -46v-311q0 -46 -46 -46h-253v86h194zM241 319h-100v-95h100v95z" />
    <glyph glyph-name="nine.numr" horiz-adv-x="401" 
d="M241 358v66h-157q-46 0 -46 46v159q0 46 46 46h216q46 0 46 -46v-311q0 -46 -46 -46h-253v86h194zM241 591h-100v-95h100v95z" />
    <glyph glyph-name="nine_sixteenths" horiz-adv-x="564" 
d="M312 485v39h-95q-27 0 -27 28v95q0 28 27 28h130q28 0 28 -28v-186q0 -28 -28 -28h-152v52h117zM312 625h-60v-57h60v57zM365 189v-39h94q28 0 28 -28v-95q0 -28 -28 -28h-129q-28 0 -28 28v186q0 28 28 28h151v-52h-116zM365 49h60v57h-60v-57zM77 -1v49h64v140l-51 -13
l-8 44l65 22h58v-193h56v-49h-184zM532 368v-52h-500v52h500z" />
    <glyph glyph-name="one.alt" horiz-adv-x="420" 
d="M155 0v565l-93 -21l-20 83l136 48h88v-675h-111z" />
    <glyph glyph-name="one.dnom" horiz-adv-x="348" 
d="M25 0v82h106v232l-84 -21l-13 74l107 36h98v-321h92v-82h-306z" />
    <glyph glyph-name="one.numr" horiz-adv-x="348" 
d="M25 272v82h106v232l-84 -21l-13 74l107 36h98v-321h92v-82h-306z" />
    <glyph glyph-name="one_sixteenths" horiz-adv-x="564" 
d="M190 438v49h64v140l-51 -13l-8 44l65 22h58v-193h56v-49h-184zM532 368v-52h-500v52h500zM365 189v-39h94q28 0 28 -28v-95q0 -28 -28 -28h-129q-28 0 -28 28v186q0 28 28 28h151v-52h-116zM365 49h60v57h-60v-57zM77 -1v49h64v140l-51 -13l-8 44l65 22h58v-193h56v-49
h-184z" />
    <glyph glyph-name="ordinalunderscore" horiz-adv-x="527" 
d="M527 91v-91h-527v91h527z" />
    <glyph glyph-name="registered.alt" horiz-adv-x="484" 
d="M387 675q21 0 34 -13t13 -34v-311q0 -21 -13 -34t-34 -13h-290q-21 0 -34 13t-13 34v311q0 21 13 34t34 13h290zM373 616q0 8 -9 8h-246q-7 0 -7 -8v-288q0 -7 7 -7h246q9 0 9 7v288zM270 535q0 3 -3 3h-49v-61h49q3 0 3 3v55zM243 431h-25v-72h-59v228h144q11 0 18 -7.5
t7 -18.5v-104q0 -11 -7 -18.5t-18 -7.5h-2l29 -72h-58z" />
    <glyph glyph-name="seven.dnom" horiz-adv-x="320" 
d="M330 403v-87l-172 -316h-120l179 310h-188v93h301z" />
    <glyph glyph-name="seven.numr" horiz-adv-x="320" 
d="M330 675v-87l-172 -316h-120l179 310h-188v93h301z" />
    <glyph glyph-name="seven_sixteenths" horiz-adv-x="564" 
d="M372 675v-52l-103 -190h-72l107 186h-113v56h181zM365 189v-39h94q28 0 28 -28v-95q0 -28 -28 -28h-129q-28 0 -28 28v186q0 28 28 28h151v-52h-116zM365 49h60v57h-60v-57zM77 -1v49h64v140l-51 -13l-8 44l65 22h58v-193h56v-49h-184zM532 368v-52h-500v52h500z" />
    <glyph glyph-name="six.dnom" horiz-adv-x="400" 
d="M160 317v-66h157q46 0 46 -46v-159q0 -46 -46 -46h-216q-46 0 -46 46v311q0 46 46 46h253v-86h-194zM160 84h100v95h-100v-95z" />
    <glyph glyph-name="six.numr" horiz-adv-x="400" 
d="M160 589v-66h157q46 0 46 -46v-159q0 -46 -46 -46h-216q-46 0 -46 46v311q0 46 46 46h253v-86h-194zM160 356h100v95h-100v-95z" />
    <glyph glyph-name="thirteen_sixteenths" horiz-adv-x="650" 
d="M365 438v51h102v48h-96v48h96v43h-102v52h138q27 0 27 -28v-58q0 -27 -28 -31q15 -5 21.5 -16t6.5 -24v-58q0 -27 -27 -27h-138zM120 438v49h64v140l-51 -13l-8 44l65 22h58v-193h56v-49h-184zM408 189v-39h94q28 0 28 -28v-95q0 -28 -28 -28h-129q-28 0 -28 28v186
q0 28 28 28h151v-52h-116zM408 49h60v57h-60v-57zM120 -1v49h64v140l-51 -13l-8 44l65 22h58v-193h56v-49h-184zM618 368v-52h-586v52h586z" />
    <glyph glyph-name="three.dnom" horiz-adv-x="351" 
d="M38 0v86h170v80h-159v80h159v72h-170v86h230q46 0 46 -46v-97q0 -20 -11 -33.5t-36 -18.5q25 -7 36 -26.5t11 -39.5v-97q0 -46 -46 -46h-230z" />
    <glyph glyph-name="three.numr" horiz-adv-x="351" 
d="M38 271v86h170v80h-159v80h159v72h-170v86h230q46 0 46 -46v-97q0 -20 -11 -33.5t-36 -18.5q25 -7 36 -26.5t11 -39.5v-97q0 -46 -46 -46h-230z" />
    <glyph glyph-name="three_sixteenths" horiz-adv-x="564" 
d="M199 433v51h102v48h-96v48h96v43h-102v52h138q27 0 27 -28v-58q0 -27 -28 -31q15 -5 21.5 -16t6.5 -24v-58q0 -27 -27 -27h-138zM365 189v-39h94q28 0 28 -28v-95q0 -28 -28 -28h-129q-28 0 -28 28v186q0 28 28 28h151v-52h-116zM365 49h60v57h-60v-57zM77 -1v49h64v140
l-51 -13l-8 44l65 22h58v-193h56v-49h-184zM532 368v-52h-500v52h500z" />
    <glyph glyph-name="two.dnom" horiz-adv-x="372" 
d="M143 93h187v-93h-292v201q0 46 46 46h145v70h-182v86h242q46 0 46 -46v-142q0 -46 -46 -46h-146v-76z" />
    <glyph glyph-name="two.numr" horiz-adv-x="372" 
d="M143 365h187v-93h-292v201q0 46 46 46h145v70h-182v86h242q46 0 46 -46v-142q0 -46 -46 -46h-146v-76z" />
    <glyph glyph-name="zero.dnom" horiz-adv-x="419" 
d="M317 403q20 0 33.5 -13t13.5 -32v-312q0 -20 -13.5 -33t-33.5 -13h-214q-19 0 -33.5 13t-14.5 33v312q0 19 14.5 32t33.5 13h214zM259 317h-99v-230h99v230z" />
    <glyph glyph-name="zero.numr" horiz-adv-x="419" 
d="M317 675q20 0 33.5 -13t13.5 -32v-312q0 -20 -13.5 -33t-33.5 -13h-214q-19 0 -33.5 13t-14.5 33v312q0 19 14.5 32t33.5 13h214zM259 589h-99v-230h99v230z" />
    <glyph glyph-name="zero.zero" horiz-adv-x="419" 
d="M142 100l1 -5l86 491h-75q-12 0 -12 -12v-474zM277 574l-2 7l-86 -493h76q12 0 12 12v474zM161 -5l-17 -68h-44l17 68q-32 3 -50 23.5t-18 54.5v530q0 36 21 57t57 21h128l14 65h44l-17 -65q35 -2 54.5 -22.5t19.5 -55.5v-530q0 -36 -21 -57t-57 -21h-131z" />
    </font>
</defs>
</svg>
